<svg width="32769" height="14" viewBox="0 0 32769 14" fill="none" xmlns="http://www.w3.org/2000/svg">
<rect x="32755.5" y="0.665949" width="12.1053" height="12.1053" rx="14.5" stroke="#122223" stroke-opacity="0.2"/>
<rect x="32759.3" y="4.53438" width="4.36844" height="4.36844" rx="5" fill="#122223"/>
<path d="M3.21038 12.2389V12.7252H0.161219V12.2997L1.6874 10.6007C1.8751 10.3917 2.02015 10.2146 2.12254 10.0696C2.22705 9.92241 2.29958 9.79123 2.3401 9.67604C2.38276 9.55873 2.4041 9.43928 2.4041 9.31769C2.4041 9.16412 2.3721 9.02547 2.30811 8.90175C2.24625 8.77591 2.15453 8.67565 2.03295 8.601C1.91137 8.52634 1.76419 8.48901 1.59141 8.48901C1.38451 8.48901 1.21173 8.52954 1.07309 8.6106C0.936574 8.68952 0.834189 8.80044 0.765932 8.94335C0.697675 9.08626 0.663547 9.2505 0.663547 9.43608H0.0716322C0.0716322 9.17371 0.129224 8.93375 0.244407 8.71618C0.359591 8.49861 0.530233 8.32584 0.756333 8.19786C0.982434 8.06774 1.26079 8.00268 1.59141 8.00268C1.88577 8.00268 2.13747 8.05494 2.3465 8.15946C2.55554 8.26185 2.71552 8.40689 2.82643 8.5946C2.93948 8.78017 2.99601 8.99774 2.99601 9.2473C2.99601 9.38382 2.97255 9.52246 2.92562 9.66324C2.88083 9.80189 2.8179 9.94054 2.73685 10.0792C2.65793 10.2178 2.56514 10.3543 2.45849 10.4887C2.35397 10.6231 2.24199 10.7554 2.12254 10.8855L0.874716 12.2389H3.21038Z" fill="black"/>
<rect x="32761.5" y="-1.8441" width="12.1053" height="12.1053" rx="14.5" transform="rotate(45 32761.5 -1.8441)" stroke="#122223"/>
</svg>
