<svg width="15" height="14" viewBox="0 0 15 14" fill="none" xmlns="http://www.w3.org/2000/svg">
<g clip-path="url(#clip0_1_26)">
<path d="M0.877444 6.00834H12.8881L8.28902 1.62909C8.0482 1.39977 8.03887 1.01879 8.26825 0.778037C8.49733 0.537587 8.87842 0.527957 9.11954 0.757272L14.3719 5.75885C14.5991 5.98636 14.7247 6.2885 14.7247 6.61021C14.7247 6.93161 14.5991 7.23405 14.3613 7.47149L9.11925 12.4629C9.00275 12.5738 8.85344 12.6289 8.70413 12.6289C8.54519 12.6289 8.38625 12.5663 8.26795 12.4421C8.03857 12.2014 8.0479 11.8207 8.28872 11.5914L12.9071 7.21209H0.877444C0.54511 7.21209 0.275391 6.94245 0.275391 6.61021C0.275391 6.27798 0.54511 6.00834 0.877444 6.00834Z" fill="#1A1A1A"/>
</g>
<defs>
<clipPath id="clip0_1_26">
<rect width="15" height="12.84" fill="white" transform="translate(0 0.190186)"/>
</clipPath>
</defs>
</svg>
