<svg width="20" height="21" viewBox="0 0 20 21" fill="none" xmlns="http://www.w3.org/2000/svg">
<g clip-path="url(#clip0_1_79)">
<path d="M17.5333 6.39683H8.73333C8.28889 6.39683 7.86667 6.53016 7.46667 6.79683C7.37778 6.13016 7.1 5.58571 6.63333 5.16349C6.16667 4.74127 5.62222 4.53016 5 4.53016C4.51111 4.53016 4.06667 4.64127 3.66667 4.86349V3.86349C3.66667 3.68571 3.61111 3.54127 3.5 3.43016C3.38889 3.31905 3.24444 3.26349 3.06667 3.26349H0.6C0.422222 3.26349 0.277778 3.31905 0.166667 3.43016C0.0555556 3.54127 0 3.68571 0 3.86349V16.3968C0 16.5746 0.0555556 16.719 0.166667 16.8302C0.277778 16.9413 0.422222 16.9968 0.6 16.9968H3.06667C3.24444 16.9968 3.38889 16.9413 3.5 16.8302C3.61111 16.719 3.66667 16.5746 3.66667 16.3968V14.4635H16.3333V16.3968C16.3333 16.5746 16.3889 16.719 16.5 16.8302C16.6111 16.9413 16.7556 16.9968 16.9333 16.9968H19.4C19.5778 16.9968 19.7222 16.9413 19.8333 16.8302C19.9444 16.719 20 16.5746 20 16.3968V8.86349C20 8.19683 19.7556 7.61905 19.2667 7.13016C18.7778 6.64127 18.2 6.39683 17.5333 6.39683ZM5 5.66349C5.35556 5.66349 5.65556 5.79683 5.9 6.06349C6.14444 6.33016 6.26667 6.64127 6.26667 6.99683C6.26667 7.35238 6.14444 7.65238 5.9 7.89683C5.65556 8.14127 5.35556 8.26349 5 8.26349C4.64444 8.26349 4.33333 8.14127 4.06667 7.89683C3.8 7.65238 3.66667 7.35238 3.66667 6.99683C3.66667 6.64127 3.8 6.33016 4.06667 6.06349C4.33333 5.79683 4.64444 5.66349 5 5.66349ZM3.66667 9.06349C4.06667 9.33016 4.5 9.46349 4.96667 9.46349C5.43333 9.46349 5.86667 9.33016 6.26667 9.06349V10.7968H3.66667V9.06349ZM18.8 15.7968H17.4667V13.8635C17.4667 13.7302 17.4111 13.6079 17.3 13.4968C17.1889 13.3857 17.0667 13.3302 16.9333 13.3302H3.06667C2.93333 13.3302 2.81111 13.3857 2.7 13.4968C2.58889 13.6079 2.53333 13.7302 2.53333 13.8635V15.7968H1.2V4.46349H2.53333V11.3968C2.53333 11.5302 2.58889 11.6635 2.7 11.7968C2.81111 11.9302 2.93333 11.9968 3.06667 11.9968H18.8V15.7968ZM18.8 10.7968H7.46667V8.86349C7.46667 8.50794 7.58889 8.20794 7.83333 7.96349C8.07778 7.71905 8.37778 7.59683 8.73333 7.59683H17.5333C17.8889 7.59683 18.1889 7.71905 18.4333 7.96349C18.6778 8.20794 18.8 8.50794 18.8 8.86349V10.7968Z" fill="#fff"/>
</g>
<defs>
<clipPath id="clip0_1_79">
<rect width="20" height="20" fill="white" transform="matrix(1 0 0 -1 0 20.1301)"/>
</clipPath>
</defs>
</svg>
