<svg width="21" height="21" viewBox="0 0 21 21" fill="none" xmlns="http://www.w3.org/2000/svg">
<g clip-path="url(#clip0_1_83)">
<path d="M20.95 10.2635C20.95 9.77457 20.7833 9.36346 20.45 9.03012C20.1167 8.69679 19.7056 8.53012 19.2167 8.53012H4.08335V3.13012C4.08335 2.68568 4.2389 2.3079 4.55001 1.99679C4.77223 1.77457 5.02779 1.64124 5.31668 1.59679C5.60557 1.55235 5.90557 1.57457 6.21668 1.66346C5.81668 2.28568 5.66112 2.97457 5.75001 3.73012C5.8389 4.48568 6.15001 5.13012 6.68335 5.66346L6.81668 5.86346C6.95001 5.95235 7.09446 5.99679 7.25001 5.99679C7.40557 5.99679 7.52779 5.95235 7.61668 5.86346L11.4167 2.06346C11.55 1.93012 11.6167 1.78568 11.6167 1.63012C11.6167 1.47457 11.55 1.33012 11.4167 1.19679L11.2833 1.06346C10.7056 0.48568 10.0056 0.174568 9.18335 0.130123C8.36112 0.08568 7.6389 0.307901 7.01668 0.796791C6.48335 0.48568 5.90557 0.363457 5.28335 0.430124C4.66112 0.49679 4.12779 0.752346 3.68335 1.19679C3.15001 1.73012 2.88335 2.37457 2.88335 3.13012V8.53012H2.68335C2.19446 8.53012 1.78335 8.69679 1.45001 9.03012C1.11668 9.36346 0.950012 9.77457 0.950012 10.2635C0.950012 10.6635 1.06112 11.0079 1.28335 11.2968C1.50557 11.5857 1.77223 11.7968 2.08335 11.9301V13.1968C2.08335 14.2635 2.37223 15.2412 2.95001 16.1301C3.52779 17.019 4.26112 17.7079 5.15001 18.1968L4.61668 19.2635C4.52779 19.4412 4.51668 19.5968 4.58335 19.7301C4.65001 19.8635 4.75001 19.9746 4.88335 20.0635C5.01668 20.1523 5.16112 20.1635 5.31668 20.0968C5.47223 20.0301 5.59446 19.9301 5.68335 19.7968L6.28335 18.5968C6.72779 18.6857 7.19446 18.7301 7.68335 18.7301H14.2167C14.7056 18.7301 15.1722 18.6857 15.6167 18.5968L16.2167 19.7968C16.3056 19.9301 16.4278 20.0301 16.5833 20.0968C16.7389 20.1635 16.8833 20.1523 17.0167 20.0635C17.15 19.9746 17.25 19.8635 17.3167 19.7301C17.3833 19.5968 17.3722 19.4412 17.2833 19.2635L16.75 18.1968C17.6389 17.7079 18.3722 17.019 18.95 16.1301C19.5278 15.2412 19.8167 14.2635 19.8167 13.1968V11.9301C20.1278 11.7968 20.3945 11.5857 20.6167 11.2968C20.8389 11.0079 20.95 10.6635 20.95 10.2635ZM10.15 1.66346L7.28335 4.59679C6.97223 4.15235 6.8389 3.68568 6.88335 3.19679C6.92779 2.7079 7.12779 2.28568 7.48335 1.93012C7.8389 1.57457 8.27223 1.37457 8.78335 1.33012C9.29446 1.28568 9.75001 1.39679 10.15 1.66346ZM2.68335 9.73012H19.2167C19.35 9.73012 19.4722 9.78568 19.5833 9.89679C19.6945 10.0079 19.75 10.1412 19.75 10.2968C19.75 10.4523 19.6945 10.5857 19.5833 10.6968C19.4722 10.8079 19.35 10.8635 19.2167 10.8635H2.68335C2.55001 10.8635 2.42779 10.8079 2.31668 10.6968C2.20557 10.5857 2.15001 10.4523 2.15001 10.2968C2.15001 10.1412 2.20557 10.0079 2.31668 9.89679C2.42779 9.78568 2.55001 9.73012 2.68335 9.73012ZM18.6167 13.1968C18.6167 13.9968 18.4167 14.7301 18.0167 15.3968C17.6167 16.0635 17.0833 16.5968 16.4167 16.9968C15.75 17.3968 15.0167 17.5968 14.2167 17.5968H7.68335C6.88335 17.5968 6.15001 17.3968 5.48335 16.9968C4.81668 16.5968 4.28335 16.0635 3.88335 15.3968C3.48335 14.7301 3.28335 13.9968 3.28335 13.1968V12.0635H18.6167V13.1968ZM9.41668 6.06346C9.41668 6.24124 9.47223 6.38568 9.58335 6.49679C9.69446 6.6079 9.82779 6.66346 9.98335 6.66346C10.1389 6.66346 10.2722 6.6079 10.3833 6.49679C10.4945 6.38568 10.55 6.24124 10.55 6.06346C10.55 5.88568 10.4945 5.74124 10.3833 5.63012C10.2722 5.51901 10.1389 5.46346 9.98335 5.46346C9.82779 5.46346 9.69446 5.51901 9.58335 5.63012C9.47223 5.74124 9.41668 5.88568 9.41668 6.06346ZM11.0833 4.39679C11.0833 4.57457 11.1389 4.71901 11.25 4.83012C11.3611 4.94124 11.4945 4.99679 11.65 4.99679C11.8056 4.99679 11.9389 4.94124 12.05 4.83012C12.1611 4.71901 12.2167 4.57457 12.2167 4.39679C12.2167 4.21901 12.1611 4.07457 12.05 3.96346C11.9389 3.85235 11.8056 3.79679 11.65 3.79679C11.4945 3.79679 11.3611 3.85235 11.25 3.96346C11.1389 4.07457 11.0833 4.21901 11.0833 4.39679ZM11.4833 6.46346C11.4833 6.59679 11.5389 6.73012 11.65 6.86346C11.7611 6.99679 11.8945 7.06346 12.05 7.06346C12.2056 7.06346 12.3389 6.99679 12.45 6.86346C12.5611 6.73012 12.6167 6.58568 12.6167 6.43012C12.6167 6.27457 12.5611 6.14124 12.45 6.03012C12.3389 5.91901 12.2056 5.86346 12.05 5.86346C11.8945 5.86346 11.7611 5.91901 11.65 6.03012C11.5389 6.14124 11.4833 6.28568 11.4833 6.46346Z" fill="#fff"/>
</g>
<defs>
<clipPath id="clip0_1_83">
<rect width="20" height="20" fill="white" transform="matrix(1 0 0 -1 0.950012 20.1301)"/>
</clipPath>
</defs>
</svg>
