<svg width="41" height="40" viewBox="0 0 41 40" fill="none" xmlns="http://www.w3.org/2000/svg">
<path d="M1.60957 34.1335C1.43179 34.1335 1.25401 34.2224 1.07624 34.4002C0.898459 34.578 0.80957 34.7558 0.80957 34.9335V38.2669C0.80957 38.5335 0.898459 38.7558 1.07624 38.9335C1.25401 39.1113 1.43179 39.2002 1.60957 39.2002H30.8096C31.0762 39.2002 31.2985 39.1113 31.4762 38.9335C31.654 38.7558 31.6985 38.5335 31.6096 38.2669V34.9335C31.6096 34.7558 31.5429 34.578 31.4096 34.4002C31.2762 34.2224 31.0762 34.1335 30.8096 34.1335H1.60957ZM2.5429 35.8669H30.0096V37.4669H2.5429V35.8669ZM28.2762 19.2002C28.0985 19.2002 27.9207 19.2669 27.7429 19.4002C27.5651 19.5335 27.4762 19.7335 27.4762 20.0002V34.1335H4.9429V22.6669C5.03179 22.4002 4.98735 22.2002 4.80957 22.0669C4.63179 21.9335 4.43179 21.8669 4.20957 21.8669C3.98735 21.8669 3.78735 21.9335 3.60957 22.0669C3.43179 22.2002 3.3429 22.4002 3.3429 22.6669V34.9335C3.3429 35.2002 3.43179 35.4224 3.60957 35.6002C3.78735 35.778 3.96513 35.8669 4.1429 35.8669H28.2762C28.5429 35.8669 28.7651 35.778 28.9429 35.6002C29.1207 35.4224 29.2096 35.2002 29.2096 34.9335V20.0002C29.2096 19.7335 29.1207 19.5335 28.9429 19.4002C28.7651 19.2669 28.5429 19.2002 28.2762 19.2002ZM4.9429 10.0002C4.58735 10.0002 4.36513 10.178 4.27624 10.5335L0.942904 19.7335C0.854015 20.0002 0.876237 20.2446 1.00957 20.4669C1.1429 20.6891 1.3429 20.8002 1.60957 20.8002H30.8096C31.1651 20.8002 31.4096 20.6891 31.5429 20.4669C31.6762 20.2446 31.6985 20.0002 31.6096 19.7335L28.2762 10.5335C28.1873 10.178 27.9207 10.0002 27.4762 10.0002H23.3429C23.0762 10.0002 22.8762 10.0891 22.7429 10.2669C22.6096 10.4446 22.5429 10.6446 22.5429 10.8669C22.5429 11.0891 22.6096 11.2669 22.7429 11.4002C22.8762 11.5335 23.0762 11.6002 23.3429 11.6002H26.9429L29.6096 19.2002H2.80957L5.60957 11.6002H9.60957C9.78735 11.6002 9.96513 11.5335 10.1429 11.4002C10.3207 11.2669 10.4096 11.0891 10.4096 10.8669C10.4096 10.6446 10.3207 10.4446 10.1429 10.2669C9.96513 10.0891 9.78735 10.0002 9.60957 10.0002H4.9429ZM9.60957 7.06686C9.3429 7.06686 9.1429 7.15575 9.00957 7.33353C8.87624 7.5113 8.80957 7.73353 8.80957 8.00019V15.8669C8.80957 16.0446 8.87624 16.2224 9.00957 16.4002C9.1429 16.578 9.3429 16.6669 9.60957 16.6669H22.9429C23.1207 16.6669 23.2985 16.578 23.4762 16.4002C23.654 16.2224 23.7429 16.0446 23.7429 15.8669V8.00019C23.7429 7.73353 23.654 7.5113 23.4762 7.33353C23.2985 7.15575 23.0985 7.06686 22.8762 7.06686C22.654 7.06686 22.4762 7.15575 22.3429 7.33353C22.2096 7.5113 22.1429 7.73353 22.1429 8.00019V14.9335H10.4096V8.00019C10.4096 7.73353 10.3207 7.5113 10.1429 7.33353C9.96513 7.15575 9.78735 7.06686 9.60957 7.06686ZM9.20957 0.800194C8.76513 0.800194 8.49846 1.02242 8.40957 1.46686L6.27624 7.73353C6.18735 8.00019 6.23179 8.24464 6.40957 8.46686C6.58735 8.68908 6.80957 8.80019 7.07624 8.80019H25.4762C25.7429 8.80019 25.9651 8.68908 26.1429 8.46686C26.3207 8.24464 26.3651 8.00019 26.2762 7.73353L24.1429 1.46686C24.054 1.02242 23.7873 0.800194 23.3429 0.800194H9.20957ZM9.7429 2.53353H22.8096L24.2762 7.06686H8.27624L9.7429 2.53353ZM7.47624 25.0669C7.29846 24.978 7.12068 25.0224 6.9429 25.2002C6.76513 25.378 6.67624 25.6002 6.67624 25.8669V34.9335C6.67624 35.2002 6.76513 35.4224 6.9429 35.6002C7.12068 35.778 7.29846 35.8669 7.47624 35.8669H14.6762C14.854 35.8669 15.0318 35.778 15.2096 35.6002C15.3873 35.4224 15.4762 35.2002 15.4762 34.9335V25.8669C15.4762 25.6002 15.3873 25.4002 15.2096 25.2669C15.0318 25.1335 14.854 25.0669 14.6762 25.0669H7.47624ZM8.40957 26.6669H13.7429V34.1335H8.40957V26.6669ZM18.0096 25.0669C17.7429 24.978 17.5207 25.0224 17.3429 25.2002C17.1651 25.378 17.0762 25.6002 17.0762 25.8669V31.4669C17.0762 31.6446 17.1651 31.8224 17.3429 32.0002C17.5207 32.178 17.7429 32.2669 18.0096 32.2669H25.8762C26.054 32.2669 26.2318 32.178 26.4096 32.0002C26.5873 31.8224 26.6762 31.6446 26.6762 31.4669V28.6669C26.6762 28.4002 26.5873 28.2002 26.4096 28.0669C26.2318 27.9335 26.0318 27.8669 25.8096 27.8669C25.5873 27.8669 25.3874 27.9335 25.2096 28.0669C25.0318 28.2002 24.9429 28.4002 24.9429 28.6669V30.6669H18.8096V26.6669H25.8762C26.054 26.6669 26.2318 26.578 26.4096 26.4002C26.5873 26.2224 26.6762 26.0224 26.6762 25.8002C26.6762 25.578 26.5873 25.4002 26.4096 25.2669C26.2318 25.1335 26.054 25.0669 25.8762 25.0669H18.0096ZM13.3429 9.46686C13.0762 9.37797 12.8762 9.42242 12.7429 9.60019C12.6096 9.77797 12.5429 10.0002 12.5429 10.2669V13.6002C12.5429 13.778 12.6096 13.9557 12.7429 14.1335C12.8762 14.3113 13.0762 14.4002 13.3429 14.4002H19.2096C19.3873 14.4002 19.5651 14.3113 19.7429 14.1335C19.9207 13.9557 20.0096 13.778 20.0096 13.6002V10.2669C20.0096 10.0002 19.9207 9.77797 19.7429 9.60019C19.5651 9.42242 19.3873 9.37797 19.2096 9.46686H13.3429ZM14.1429 11.0669H18.4096V12.6669H14.1429V11.0669ZM34.1429 0.800194C32.8096 0.800194 31.654 1.28908 30.6762 2.26686C29.6985 3.24464 29.2096 4.42242 29.2096 5.80019C29.2096 7.17797 29.6985 8.35575 30.6762 9.33353C31.654 10.3113 32.8318 10.8002 34.2096 10.8002C35.5873 10.8002 36.7651 10.3113 37.7429 9.33353C38.7207 8.35575 39.2096 7.17797 39.2096 5.80019C39.2096 4.42242 38.7207 3.24464 37.7429 2.26686C36.7651 1.28908 35.5651 0.800194 34.1429 0.800194ZM34.1429 2.53353C35.1207 2.53353 35.9207 2.84464 36.5429 3.46686C37.1651 4.08908 37.4762 4.86686 37.4762 5.80019C37.4762 6.73353 37.1651 7.53353 36.5429 8.20019C35.9207 8.86686 35.1429 9.20019 34.2096 9.20019C33.2762 9.20019 32.4762 8.86686 31.8096 8.20019C31.1429 7.53353 30.8096 6.73353 30.8096 5.80019C30.8096 4.86686 31.1429 4.08908 31.8096 3.46686C32.4762 2.84464 33.254 2.53353 34.1429 2.53353ZM11.2096 30.4002C11.2096 30.6669 11.1207 30.8891 10.9429 31.0669C10.7651 31.2446 10.5651 31.3335 10.3429 31.3335C10.1207 31.3335 9.92068 31.2446 9.7429 31.0669C9.56513 30.8891 9.47624 30.6669 9.47624 30.4002C9.47624 30.1335 9.56513 29.9113 9.7429 29.7335C9.92068 29.5557 10.1207 29.4669 10.3429 29.4669C10.5651 29.4669 10.7651 29.5557 10.9429 29.7335C11.1207 29.9113 11.2096 30.1335 11.2096 30.4002ZM20.9429 27.4669C20.5873 27.4669 20.3207 27.6002 20.1429 27.8669L19.7429 28.5335C19.5651 28.8002 19.5207 29.0446 19.6096 29.2669C19.6985 29.4891 19.8318 29.6446 20.0096 29.7335C20.1873 29.8224 20.3873 29.8446 20.6096 29.8002C20.8318 29.7558 21.0318 29.6446 21.2096 29.4669L21.6096 28.6669C21.6985 28.4891 21.7207 28.2891 21.6762 28.0669C21.6318 27.8446 21.5207 27.6891 21.3429 27.6002C21.1651 27.5113 21.0318 27.4669 20.9429 27.4669ZM23.3429 27.4669C23.0762 27.4669 22.854 27.6002 22.6762 27.8669L22.2762 28.5335C22.0985 28.8002 22.054 29.0446 22.1429 29.2669C22.2318 29.4891 22.3651 29.6446 22.5429 29.7335C22.7207 29.8224 22.9207 29.8446 23.1429 29.8002C23.3651 29.7558 23.5207 29.6446 23.6096 29.4669L24.0096 28.6669C24.1873 28.4891 24.2318 28.2891 24.1429 28.0669C24.054 27.8446 23.9429 27.6891 23.8096 27.6002C23.6762 27.5113 23.5207 27.4669 23.3429 27.4669Z" fill="#1A1A1A"/>
</svg>
