<svg width="41" height="41" viewBox="0 0 41 41" fill="none" xmlns="http://www.w3.org/2000/svg">
<g clip-path="url(#clip0_151_2)">
<path d="M28.9902 28.4465C28.6347 28.4465 28.3902 28.2688 28.2569 27.9132C28.1236 27.5577 28.1902 27.2465 28.4569 26.9799C28.7236 26.7132 29.0347 26.691 29.3902 26.9132C29.7458 27.1354 29.8791 27.3799 29.7902 27.6465C29.7013 27.9132 29.5902 28.1132 29.4569 28.2465C29.3236 28.3799 29.168 28.4465 28.9902 28.4465ZM24.5902 13.7799H17.3902C17.1236 13.7799 16.9236 13.8465 16.7902 13.9799C16.6569 14.1132 16.5902 14.3132 16.5902 14.5799V24.4465C16.5902 24.7132 16.6569 24.9132 16.7902 25.0465C16.9236 25.1799 17.1236 25.2465 17.3902 25.2465H24.5902C24.8569 25.2465 25.0569 25.1799 25.1902 25.0465C25.3236 24.9132 25.3902 24.7132 25.3902 24.4465V14.5799C25.3902 14.3132 25.3236 14.1132 25.1902 13.9799C25.0569 13.8465 24.8569 13.7799 24.5902 13.7799ZM18.0569 15.3799H20.1902V23.7799H18.0569V15.3799ZM23.9236 23.7799H21.7902V15.3799H23.9236V23.7799ZM40.5902 20.9799L29.7902 14.5799V8.84655C29.7902 8.57988 29.7013 8.35766 29.5236 8.17988L21.5236 1.91322C21.168 1.73544 20.8125 1.73544 20.4569 1.91322L12.4569 8.17988C12.2791 8.35766 12.1902 8.57988 12.1902 8.84655V14.5799L1.39023 20.9799C1.12357 21.0688 0.990234 21.291 0.990234 21.6465V25.9132C0.990234 26.1799 1.07912 26.3799 1.2569 26.5132C1.43468 26.6465 1.59023 26.7132 1.72357 26.7132C1.8569 26.7132 2.01246 26.6688 2.19023 26.5799L2.72357 26.3132V38.5799C2.72357 38.7577 2.79023 38.9354 2.92357 39.1132C3.0569 39.291 3.2569 39.3799 3.52357 39.3799H38.4569C38.7236 39.3799 38.9236 39.291 39.0569 39.1132C39.1902 38.9354 39.2569 38.7577 39.2569 38.5799V26.3132L39.7902 26.5799C39.968 26.6688 40.1236 26.7132 40.2569 26.7132C40.3902 26.7132 40.5458 26.6465 40.7236 26.5132C40.9013 26.3799 40.9902 26.1799 40.9902 25.9132V21.6465C40.9902 21.291 40.8569 21.0688 40.5902 20.9799ZM20.9902 3.51321L28.1902 9.24655V11.7799L21.5236 6.57988C21.168 6.31321 20.8125 6.31321 20.4569 6.57988L13.7902 11.7799V9.24655L20.9902 3.51321ZM2.59023 22.0465L12.1902 16.3132V18.8465L2.59023 24.5799V22.0465ZM4.32357 29.1132H7.6569V33.7799H4.32357V29.1132ZM4.32357 35.2465H8.4569C8.72357 35.2465 8.92357 35.1799 9.0569 35.0465C9.19024 34.9132 9.2569 34.7132 9.2569 34.4465V28.3132C9.2569 28.0465 9.19024 27.8465 9.0569 27.7132C8.92357 27.5799 8.72357 27.5132 8.4569 27.5132H4.32357V25.3799L12.1902 20.7132V37.7799H4.32357V35.2465ZM19.1236 37.7799V29.2465H22.8569V37.7799H19.1236ZM37.6569 33.7799H34.0569V29.1132H37.6569V33.7799ZM37.6569 27.5132H33.2569C33.0791 27.5132 32.9236 27.5799 32.7902 27.7132C32.6569 27.8465 32.5902 28.0465 32.5902 28.3132V34.4465C32.5902 34.7132 32.6569 34.9132 32.7902 35.0465C32.9236 35.1799 33.0791 35.2465 33.2569 35.2465H37.6569V37.7799H29.7902V31.1132C29.7902 30.9354 29.7236 30.7577 29.5902 30.5799C29.4569 30.4021 29.2791 30.3132 29.0569 30.3132C28.8347 30.3132 28.6347 30.4021 28.4569 30.5799C28.2791 30.7577 28.1902 30.9354 28.1902 31.1132V37.7799H24.3236V28.5799C24.3236 28.3132 24.2569 28.1132 24.1236 27.9799C23.9902 27.8465 23.8347 27.7799 23.6569 27.7799H18.3236C18.1458 27.7799 17.9902 27.8465 17.8569 27.9799C17.7236 28.1132 17.6569 28.3132 17.6569 28.5799V37.7799H13.7902V13.7799L20.9902 8.17988L28.1902 13.7799V24.0465C28.1902 24.3132 28.2791 24.5132 28.4569 24.6465C28.6347 24.7799 28.8347 24.8465 29.0569 24.8465C29.2791 24.8465 29.4569 24.7799 29.5902 24.6465C29.7236 24.5132 29.7902 24.3132 29.7902 24.0465V20.7132L37.6569 25.3799V27.5132ZM39.3902 24.5799L29.7902 18.8465V16.3132L39.3902 22.0465V24.5799Z" fill="#1A1A1A"/>
</g>
<defs>
<clipPath id="clip0_151_2">
<rect width="40.02" height="40" fill="white" transform="matrix(1 0 0 -1 0.980469 40.5801)"/>
</clipPath>
</defs>
</svg>
