<svg width="41" height="40" viewBox="0 0 41 40" fill="none" xmlns="http://www.w3.org/2000/svg">
<g clip-path="url(#clip0_151_12)">
<path d="M37.8769 4L20.6769 0.133331C19.788 -0.133335 19.0103 0.0222206 18.3436 0.599998C17.6769 1.17778 17.3436 1.91111 17.3436 2.8V6.8L12.2769 11.0667C11.9214 10.1778 11.3214 9.46667 10.4769 8.93333C9.63248 8.4 8.72137 8.13333 7.7436 8.13333C6.41026 8.13333 5.25471 8.6 4.27693 9.53333C3.29915 10.4667 2.76582 11.6444 2.67693 13.0667C1.34359 13.7778 0.49915 14.8444 0.143595 16.2667C-0.211961 17.6889 0.0102614 19.0222 0.810261 20.2667C0.276928 21.0667 0.0102614 22 0.0102614 23.0667C0.0102614 24.5778 0.588039 25.8667 1.74359 26.9333V37.2C1.74359 38 2.01026 38.6667 2.5436 39.2C3.07693 39.7333 3.7436 40 4.5436 40H37.2103C38.0103 40 38.6769 39.7333 39.2103 39.2C39.7436 38.6667 40.0103 38 40.0103 37.2V6.66666C40.0103 6.04444 39.8103 5.48889 39.4103 5C39.0103 4.51111 38.4992 4.17778 37.8769 4ZM6.5436 37.6H4.5436C4.27693 37.6 4.1436 37.4667 4.1436 37.2V28C4.94359 28.1778 5.7436 28.1333 6.5436 27.8667V37.6ZM6.9436 25.0667C6.32137 25.6 5.65471 25.8444 4.94359 25.8C4.23248 25.7556 3.63248 25.4889 3.14359 25C2.65471 24.5111 2.41026 23.8667 2.41026 23.0667C2.41026 22.2667 2.67693 21.6 3.21026 21.0667C3.47693 20.8889 3.61026 20.6222 3.61026 20.2667C3.61026 19.9111 3.43248 19.6 3.07693 19.3333L2.94359 19.0667C2.32137 18.3556 2.14359 17.5556 2.41026 16.6667C2.67693 15.7778 3.29915 15.2 4.27693 14.9333C4.5436 14.8444 4.7436 14.6667 4.87693 14.4C5.01026 14.1333 5.07693 13.8667 5.07693 13.6C4.89915 12.8 5.09915 12.0889 5.67693 11.4667C6.25471 10.8444 6.9436 10.5333 7.7436 10.5333C8.5436 10.5333 9.21026 10.8444 9.7436 11.4667C10.2769 12.0889 10.4992 12.8 10.4103 13.6C10.4103 13.8667 10.4769 14.1333 10.6103 14.4C10.7436 14.6667 10.9436 14.8444 11.2103 14.9333C11.8325 15.1111 12.3214 15.4667 12.6769 16C13.0325 16.5333 13.1658 17.1111 13.0769 17.7333C12.988 18.3556 12.7214 18.9333 12.2769 19.4667C12.0103 19.6444 11.8769 19.9111 11.8769 20.2667C11.8769 20.6222 12.0103 20.8889 12.2769 21.0667C12.8103 21.6 13.0769 22.2444 13.0769 23C13.0769 23.7556 12.8325 24.4 12.3436 24.9333C11.8547 25.4667 11.2325 25.7556 10.4769 25.8C9.72137 25.8444 9.07693 25.6 8.54359 25.0667C8.27693 24.8889 7.98804 24.8 7.67693 24.8C7.36582 24.8 7.12137 24.8889 6.9436 25.0667ZM17.3436 37.6H8.94359V27.8667C9.92137 28.2222 10.9214 28.2222 11.9436 27.8667C12.9658 27.5111 13.8103 26.9111 14.4769 26.0667C15.1436 25.2222 15.4769 24.2444 15.4769 23.1333C15.4769 22.0222 15.1658 21.0667 14.5436 20.2667C15.3436 19.1111 15.6103 17.8667 15.3436 16.5333C15.0769 15.2 14.4103 14.1333 13.3436 13.3333L17.3436 9.86666V37.6ZM32.5436 37.6H24.8103V28.5333C24.8103 28.2667 24.9436 28.1333 25.2103 28.1333H32.1436C32.4103 28.1333 32.5436 28.2667 32.5436 28.5333V37.6ZM37.6103 37.2C37.6103 37.4667 37.4769 37.6 37.2103 37.6H34.8103V28.5333C34.8103 27.7333 34.5436 27.0667 34.0103 26.5333C33.4769 26 32.8547 25.7333 32.1436 25.7333H25.2103C24.4992 25.7333 23.8769 26 23.3436 26.5333C22.8103 27.0667 22.5436 27.7333 22.5436 28.5333V37.6H19.7436V2.8C19.7436 2.62222 19.788 2.48889 19.8769 2.4C19.9658 2.31111 20.0547 2.31111 20.1436 2.4L37.3436 6.26667C37.5214 6.35555 37.6103 6.48889 37.6103 6.66666V37.2ZM23.6103 9.6C23.3436 9.6 23.0992 9.71111 22.8769 9.93333C22.6547 10.1556 22.5436 10.4444 22.5436 10.8V10.9333C22.5436 11.2 22.6547 11.4667 22.8769 11.7333C23.0992 12 23.3658 12.1333 23.6769 12.1333C23.988 12.1333 24.2547 12 24.4769 11.7333C24.6992 11.4667 24.8103 11.2 24.8103 10.9333V10.8C24.8103 10.4444 24.6992 10.1556 24.4769 9.93333C24.2547 9.71111 23.9658 9.6 23.6103 9.6ZM28.6769 9.6C28.3214 9.6 28.0325 9.71111 27.8103 9.93333C27.588 10.1556 27.4769 10.4444 27.4769 10.8V10.9333C27.4769 11.2 27.588 11.4667 27.8103 11.7333C28.0325 12 28.3214 12.1333 28.6769 12.1333C29.0325 12.1333 29.3214 12 29.5436 11.7333C29.7658 11.4667 29.8769 11.2 29.8769 10.9333V10.8C29.8769 10.4444 29.7658 10.1556 29.5436 9.93333C29.3214 9.71111 29.0325 9.6 28.6769 9.6ZM33.6103 9.6C33.3436 9.6 33.0992 9.71111 32.8769 9.93333C32.6547 10.1556 32.5436 10.4444 32.5436 10.8V10.9333C32.5436 11.2 32.6547 11.4667 32.8769 11.7333C33.0992 12 33.3658 12.1333 33.6769 12.1333C33.988 12.1333 34.2547 12 34.4769 11.7333C34.6992 11.4667 34.8103 11.2 34.8103 10.9333V10.8C34.8103 10.4444 34.6992 10.1556 34.4769 9.93333C34.2547 9.71111 33.9658 9.6 33.6103 9.6ZM23.6103 15.0667C23.3436 15.0667 23.0992 15.1778 22.8769 15.4C22.6547 15.6222 22.5436 15.9111 22.5436 16.2667V16.4C22.5436 16.7556 22.6547 17.0444 22.8769 17.2667C23.0992 17.4889 23.3658 17.6 23.6769 17.6C23.988 17.6 24.2547 17.4889 24.4769 17.2667C24.6992 17.0444 24.8103 16.7556 24.8103 16.4V16.2667C24.8103 15.9111 24.6992 15.6222 24.4769 15.4C24.2547 15.1778 23.9658 15.0667 23.6103 15.0667ZM28.6769 15.0667C28.3214 15.0667 28.0325 15.1778 27.8103 15.4C27.588 15.6222 27.4769 15.9111 27.4769 16.2667V16.4C27.4769 16.7556 27.588 17.0444 27.8103 17.2667C28.0325 17.4889 28.3214 17.6 28.6769 17.6C29.0325 17.6 29.3214 17.4889 29.5436 17.2667C29.7658 17.0444 29.8769 16.7556 29.8769 16.4V16.2667C29.8769 15.9111 29.7658 15.6222 29.5436 15.4C29.3214 15.1778 29.0325 15.0667 28.6769 15.0667ZM33.6103 15.0667C33.3436 15.0667 33.0992 15.1778 32.8769 15.4C32.6547 15.6222 32.5436 15.9111 32.5436 16.2667V16.4C32.5436 16.7556 32.6547 17.0444 32.8769 17.2667C33.0992 17.4889 33.3658 17.6 33.6769 17.6C33.988 17.6 34.2547 17.4889 34.4769 17.2667C34.6992 17.0444 34.8103 16.7556 34.8103 16.4V16.2667C34.8103 15.9111 34.6992 15.6222 34.4769 15.4C34.2547 15.1778 33.9658 15.0667 33.6103 15.0667ZM23.6103 20.8C23.3436 20.8 23.0992 20.9111 22.8769 21.1333C22.6547 21.3556 22.5436 21.6 22.5436 21.8667V22.1333C22.5436 22.4 22.6547 22.6667 22.8769 22.9333C23.0992 23.2 23.3658 23.3333 23.6769 23.3333C23.988 23.3333 24.2547 23.2 24.4769 22.9333C24.6992 22.6667 24.8103 22.4 24.8103 22.1333V21.8667C24.8103 21.6 24.6992 21.3556 24.4769 21.1333C24.2547 20.9111 23.9658 20.8 23.6103 20.8ZM28.6769 20.8C28.3214 20.8 28.0325 20.9111 27.8103 21.1333C27.588 21.3556 27.4769 21.6 27.4769 21.8667V22.1333C27.4769 22.4 27.588 22.6667 27.8103 22.9333C28.0325 23.2 28.3214 23.3333 28.6769 23.3333C29.0325 23.3333 29.3214 23.2 29.5436 22.9333C29.7658 22.6667 29.8769 22.4 29.8769 22.1333V21.8667C29.8769 21.6 29.7658 21.3556 29.5436 21.1333C29.3214 20.9111 29.0325 20.8 28.6769 20.8ZM33.6103 20.8C33.3436 20.8 33.0992 20.9111 32.8769 21.1333C32.6547 21.3556 32.5436 21.6 32.5436 21.8667V22.1333C32.5436 22.4 32.6547 22.6667 32.8769 22.9333C33.0992 23.2 33.3658 23.3333 33.6769 23.3333C33.988 23.3333 34.2547 23.2 34.4769 22.9333C34.6992 22.6667 34.8103 22.4 34.8103 22.1333V21.8667C34.8103 21.6 34.6992 21.3556 34.4769 21.1333C34.2547 20.9111 33.9658 20.8 33.6103 20.8Z" fill="#1A1A1A"/>
</g>
<defs>
<clipPath id="clip0_151_12">
<rect width="40.02" height="40" fill="white" transform="matrix(1 0 0 -1 0 40)"/>
</clipPath>
</defs>
</svg>
