<svg width="41" height="40" viewBox="0 0 41 40" fill="none" xmlns="http://www.w3.org/2000/svg">
<path d="M4.80964 22.4002C4.54297 22.4002 4.34297 22.4669 4.20964 22.6002C4.0763 22.7335 4.00964 22.9335 4.00964 23.2002V38.2669C4.00964 38.5335 4.0763 38.7558 4.20964 38.9335C4.34297 39.1113 4.54297 39.2002 4.80964 39.2002H34.8096C34.9874 39.2002 35.1652 39.1113 35.343 38.9335C35.5207 38.7558 35.6096 38.5335 35.6096 38.2669V26.0002C35.6096 25.7335 35.5207 25.5335 35.343 25.4002C35.1652 25.2669 34.9652 25.2002 34.743 25.2002C34.5207 25.2002 34.343 25.2669 34.2096 25.4002C34.0763 25.5335 34.0096 25.7335 34.0096 26.0002V37.4669H5.60964V23.2002C5.60964 22.9335 5.52075 22.7335 5.34297 22.6002C5.16519 22.4669 4.98741 22.4002 4.80964 22.4002ZM8.14297 25.8669C7.8763 25.8669 7.6763 25.9335 7.54297 26.0669C7.40964 26.2002 7.34297 26.4002 7.34297 26.6669V38.2669C7.34297 38.5335 7.40964 38.7558 7.54297 38.9335C7.6763 39.1113 7.8763 39.2002 8.14297 39.2002H17.343C17.5207 39.2002 17.6985 39.1113 17.8763 38.9335C18.0541 38.7558 18.143 38.5335 18.143 38.2669V29.2002C18.143 29.0224 18.0541 28.8446 17.8763 28.6669C17.6985 28.4891 17.4985 28.4002 17.2763 28.4002C17.0541 28.4002 16.8541 28.4891 16.6763 28.6669C16.4985 28.8446 16.4096 29.0224 16.4096 29.2002V37.4669H8.94297V27.4669H17.343C17.5207 27.4669 17.6985 27.4002 17.8763 27.2669C18.0541 27.1335 18.143 26.9335 18.143 26.6669C18.143 26.4002 18.0541 26.2002 17.8763 26.0669C17.6985 25.9335 17.5207 25.8669 17.343 25.8669H8.14297ZM21.4763 25.8669C21.2096 25.8669 21.0096 25.9335 20.8763 26.0669C20.743 26.2002 20.6763 26.4002 20.6763 26.6669V34.1335C20.6763 34.4002 20.743 34.6002 20.8763 34.7335C21.0096 34.8669 21.2096 34.9335 21.4763 34.9335H31.4763C31.6541 34.9335 31.8319 34.8669 32.0096 34.7335C32.1874 34.6002 32.2763 34.4002 32.2763 34.1335V29.2002C32.2763 29.0224 32.1874 28.8446 32.0096 28.6669C31.8319 28.4891 31.6319 28.4002 31.4096 28.4002C31.1874 28.4002 31.0096 28.4891 30.8763 28.6669C30.743 28.8446 30.6763 29.0224 30.6763 29.2002V33.3335H22.2763V27.4669H31.4763C31.6541 27.4669 31.8319 27.4002 32.0096 27.2669C32.1874 27.1335 32.2763 26.9335 32.2763 26.6669C32.2763 26.4002 32.1874 26.2002 32.0096 26.0669C31.8319 25.9335 31.6541 25.8669 31.4763 25.8669H21.4763ZM19.743 16.9335C18.7652 16.9335 17.943 17.2891 17.2763 18.0002C16.6096 18.7113 16.2763 19.5557 16.2763 20.5335C16.2763 21.5113 16.6096 22.3557 17.2763 23.0669C17.943 23.778 18.7652 24.1335 19.743 24.1335C20.7207 24.1335 21.5652 23.778 22.2763 23.0669C22.9874 22.3557 23.343 21.5113 23.343 20.5335C23.343 20.2669 23.2541 20.0669 23.0763 19.9335C22.8985 19.8002 22.6985 19.7335 22.4763 19.7335C22.2541 19.7335 22.0541 19.8002 21.8763 19.9335C21.6985 20.0669 21.6096 20.2669 21.6096 20.5335C21.6096 21.0669 21.4319 21.5113 21.0763 21.8669C20.7207 22.2224 20.2763 22.4002 19.743 22.4002C19.2096 22.4002 18.7652 22.2224 18.4096 21.8669C18.0541 21.5113 17.8763 21.0669 17.8763 20.5335C17.8763 20.0002 18.0541 19.5557 18.4096 19.2002C18.7652 18.8446 19.2096 18.6669 19.743 18.6669C20.2763 18.6669 20.7207 18.8446 21.0763 19.2002C21.2541 19.378 21.4541 19.4669 21.6763 19.4669C21.8985 19.4669 22.0985 19.378 22.2763 19.2002C22.4541 19.0224 22.543 18.8224 22.543 18.6002C22.543 18.378 22.4541 18.178 22.2763 18.0002C21.5652 17.2891 20.7207 16.9335 19.743 16.9335ZM25.2096 28.8002C24.8541 28.8002 24.6319 28.978 24.543 29.3335L23.6096 30.6669C23.5207 30.9335 23.4985 31.178 23.543 31.4002C23.5874 31.6224 23.7207 31.778 23.943 31.8669C24.1652 31.9558 24.3874 31.978 24.6096 31.9335C24.8319 31.8891 24.9874 31.778 25.0763 31.6002L25.8763 30.1335C26.0541 29.9558 26.0985 29.7558 26.0096 29.5335C25.9207 29.3113 25.8096 29.1558 25.6763 29.0669C25.543 28.978 25.3874 28.8891 25.2096 28.8002ZM28.543 28.8002C28.1874 28.8002 27.9652 28.978 27.8763 29.3335L26.943 30.6669C26.8541 30.9335 26.8319 31.178 26.8763 31.4002C26.9207 31.6224 27.0541 31.778 27.2763 31.8669C27.4985 31.9558 27.7207 31.978 27.943 31.9335C28.1652 31.8891 28.3207 31.778 28.4096 31.6002L29.2096 30.1335C29.3874 29.9558 29.4319 29.7558 29.343 29.5335C29.2541 29.3113 29.143 29.1558 29.0096 29.0669C28.8763 28.978 28.7207 28.8891 28.543 28.8002ZM33.4763 0.800194C32.0541 0.800194 30.8096 1.33353 29.743 2.40019C28.6763 3.46686 28.143 4.75575 28.143 6.26686C28.143 7.77797 28.6763 9.04464 29.743 10.0669C30.8096 11.0891 32.0763 11.6002 33.543 11.6002C35.0096 11.6002 36.2763 11.0891 37.343 10.0669C38.4096 9.04464 38.943 7.77797 38.943 6.26686C38.943 4.75575 38.4096 3.46686 37.343 2.40019C36.2763 1.33353 34.9874 0.800194 33.4763 0.800194ZM33.4763 2.53353C34.543 2.53353 35.4541 2.88908 36.2096 3.60019C36.9652 4.31131 37.343 5.2002 37.343 6.26686C37.343 7.33353 36.9652 8.22242 36.2096 8.93353C35.4541 9.64464 34.5652 10.0002 33.543 10.0002C32.5207 10.0002 31.6319 9.64464 30.8763 8.93353C30.1207 8.22242 29.743 7.33353 29.743 6.26686C29.743 5.2002 30.1207 4.31131 30.8763 3.60019C31.6319 2.88908 32.4985 2.53353 33.4763 2.53353ZM4.94297 7.86686C4.76519 7.86686 4.58741 7.93353 4.40964 8.06686C4.23186 8.20019 4.14297 8.40019 4.14297 8.66686V18.1335C4.14297 18.3113 4.23186 18.4891 4.40964 18.6669C4.58741 18.8446 4.78741 18.9335 5.00964 18.9335C5.23186 18.9335 5.40964 18.8446 5.54297 18.6669C5.6763 18.4891 5.74297 18.3113 5.74297 18.1335V9.46686H9.0763V14.4002C9.0763 14.6669 9.16519 14.8891 9.34297 15.0669C9.52075 15.2446 9.72075 15.3335 9.94297 15.3335C10.1652 15.3335 10.3652 15.2446 10.543 15.0669C10.7207 14.8891 10.8096 14.6669 10.8096 14.4002V8.66686C10.8096 8.40019 10.7207 8.20019 10.543 8.06686C10.3652 7.93353 10.1874 7.86686 10.0096 7.86686H4.94297ZM3.34297 4.80019C3.0763 4.80019 2.85408 4.88908 2.6763 5.06686C2.49852 5.24464 2.40964 5.42242 2.40964 5.60019V8.66686C2.40964 8.84464 2.49852 9.02242 2.6763 9.20019C2.85408 9.37797 3.0763 9.46686 3.34297 9.46686H11.6096C11.8763 9.46686 12.0763 9.37797 12.2096 9.20019C12.343 9.02242 12.4096 8.84464 12.4096 8.66686V5.60019C12.4096 5.42242 12.343 5.24464 12.2096 5.06686C12.0763 4.88908 11.8763 4.80019 11.6096 4.80019H3.34297ZM4.14297 6.53353H10.8096V7.86686H4.14297V6.53353ZM12.0096 32.5335C12.0096 32.8002 11.8985 33.0446 11.6763 33.2669C11.4541 33.4891 11.2096 33.6002 10.943 33.6002C10.6763 33.6002 10.4319 33.4891 10.2096 33.2669C9.98741 33.0446 9.8763 32.778 9.8763 32.4669C9.8763 32.1558 9.98741 31.9113 10.2096 31.7335C10.4319 31.5558 10.6763 31.4669 10.943 31.4669C11.2096 31.4669 11.4541 31.5558 11.6763 31.7335C11.8985 31.9113 12.0096 32.178 12.0096 32.5335ZM19.6096 7.73353C19.1652 7.73353 18.7652 7.86686 18.4096 8.13353L1.74297 19.6002C1.38741 19.8669 1.16519 20.2446 1.0763 20.7335C0.987413 21.2224 1.0763 21.6446 1.34297 22.0002L2.2763 23.3335C2.54297 23.6891 2.89852 23.9113 3.34297 24.0002C3.78741 24.0891 4.23186 24.0002 4.6763 23.7335L19.743 13.2002L34.943 23.7335C35.2985 24.0002 35.7207 24.0891 36.2096 24.0002C36.6985 23.9113 37.0763 23.6891 37.343 23.3335L38.2763 22.0002C38.543 21.6446 38.6319 21.2224 38.543 20.7335C38.4541 20.2446 38.2319 19.8669 37.8763 19.6002L21.2096 8.13353C20.7652 7.86686 20.2319 7.73353 19.6096 7.73353ZM19.743 9.33353C19.9207 9.33353 20.0985 9.37797 20.2763 9.46686L36.8096 21.0669L35.8763 22.4002L20.2763 11.6002C19.9207 11.3335 19.6096 11.3335 19.343 11.6002L3.60964 22.4002L2.6763 21.0669L19.343 9.46686C19.4319 9.37797 19.5652 9.33353 19.743 9.33353Z" fill="#1A1A1A"/>
</svg>
