<svg width="41" height="40" viewBox="0 0 41 40" fill="none" xmlns="http://www.w3.org/2000/svg">
<g clip-path="url(#clip0_151_8)">
<path d="M39.2098 37.5997H36.8098V24.9331C36.8098 24.7553 36.7431 24.5775 36.6098 24.3997C36.4764 24.222 36.2987 24.1331 36.0764 24.1331C35.8542 24.1331 35.6542 24.222 35.4764 24.3997C35.2987 24.5775 35.2098 24.7553 35.2098 24.9331V37.5997H29.6098V31.0664C29.6098 30.8886 29.5431 30.7109 29.4098 30.5331C29.2764 30.3553 29.0764 30.2664 28.8098 30.2664H23.7431C23.5653 30.2664 23.3875 30.3553 23.2098 30.5331C23.032 30.7109 22.9431 30.8886 22.9431 31.0664V37.5997H17.4764V5.4664H35.2098V17.9997C35.2098 18.2664 35.2987 18.4664 35.4764 18.5997C35.6542 18.7331 35.8542 18.7997 36.0764 18.7997C36.2987 18.7997 36.4764 18.7331 36.6098 18.5997C36.7431 18.4664 36.8098 18.2664 36.8098 17.9997V4.6664C36.8098 4.39974 36.7431 4.19974 36.6098 4.06641C36.4764 3.93307 36.2764 3.86641 36.0098 3.86641H34.1431V1.59974C34.1431 1.42196 34.0542 1.2664 33.8764 1.13307C33.6987 0.999737 33.5209 0.933071 33.3431 0.933071H19.6098C19.432 0.933071 19.2542 0.999737 19.0764 1.13307C18.8987 1.2664 18.8098 1.42196 18.8098 1.59974V3.86641H16.6764C16.4987 3.86641 16.3431 3.93307 16.2098 4.06641C16.0764 4.19974 16.0098 4.39974 16.0098 4.6664V16.7997H9.87643V14.3997C9.87643 14.1331 9.78754 13.9331 9.60977 13.7997C9.43199 13.6664 9.25421 13.5997 9.07643 13.5997H3.60977C3.43199 13.5997 3.25421 13.6664 3.07643 13.7997C2.89865 13.9331 2.80977 14.1331 2.80977 14.3997V37.5997H0.809766C0.543099 37.5997 0.343099 37.6664 0.209766 37.7997C0.0764323 37.9331 0.00976562 38.1109 0.00976562 38.3331C0.00976562 38.5553 0.0764323 38.7331 0.209766 38.8664C0.343099 38.9997 0.543099 39.0664 0.809766 39.0664H39.2098C39.4764 39.0664 39.6764 38.9997 39.8098 38.8664C39.9431 38.7331 40.0098 38.5553 40.0098 38.3331C40.0098 38.1109 39.9431 37.9331 39.8098 37.7997C39.6764 37.6664 39.4764 37.5997 39.2098 37.5997ZM20.4098 2.39974H32.5431V3.86641H20.4098V2.39974ZM4.40977 15.1997H8.27643V16.7997H4.40977V15.1997ZM11.0764 37.5997H9.20977V34.7997H11.0764V37.5997ZM16.0098 37.5997H12.6764V33.9997C12.6764 33.822 12.5875 33.6442 12.4098 33.4664C12.232 33.2886 12.0542 33.1997 11.8764 33.1997H8.40977C8.23199 33.1997 8.05421 33.2886 7.87643 33.4664C7.69866 33.6442 7.60977 33.822 7.60977 33.9997V37.5997H4.40977V18.3997H16.0098V37.5997ZM28.1431 37.5997H24.5431V31.8664H28.1431V37.5997ZM36.6764 21.1997C36.4987 20.8442 36.232 20.7108 35.8764 20.7997C35.5209 20.8886 35.3209 21.1108 35.2764 21.4664C35.232 21.822 35.3653 22.0886 35.6764 22.2664C35.9875 22.4442 36.2542 22.4442 36.4764 22.2664C36.6987 22.0886 36.8098 21.9109 36.8098 21.7331C36.8098 21.5553 36.7653 21.3775 36.6764 21.1997ZM25.0764 8.93307C25.0764 8.75529 24.9875 8.59974 24.8098 8.4664C24.632 8.33307 24.4542 8.26641 24.2764 8.26641H20.9431C20.7653 8.26641 20.5875 8.33307 20.4098 8.4664C20.232 8.59974 20.1431 8.75529 20.1431 8.93307V12.2664C20.1431 12.5331 20.232 12.7331 20.4098 12.8664C20.5875 12.9997 20.7653 13.0664 20.9431 13.0664H24.2764C24.4542 13.0664 24.632 12.9997 24.8098 12.8664C24.9875 12.7331 25.0764 12.5331 25.0764 12.2664V8.93307ZM23.4764 11.4664H21.7431V9.73307H23.4764V11.4664ZM32.4098 8.93307C32.4098 8.75529 32.3209 8.59974 32.1431 8.4664C31.9653 8.33307 31.7875 8.26641 31.6098 8.26641H28.2764C28.0987 8.26641 27.9209 8.33307 27.7431 8.4664C27.5653 8.59974 27.4764 8.75529 27.4764 8.93307V12.2664C27.4764 12.5331 27.5653 12.7331 27.7431 12.8664C27.9209 12.9997 28.0987 13.0664 28.2764 13.0664H31.6098C31.7875 13.0664 31.9653 12.9997 32.1431 12.8664C32.3209 12.7331 32.4098 12.5331 32.4098 12.2664V8.93307ZM30.8098 11.4664H29.0764V9.73307H30.8098V11.4664ZM25.0764 15.8664C25.0764 15.5997 24.9875 15.3997 24.8098 15.2664C24.632 15.1331 24.4542 15.0664 24.2764 15.0664H20.9431C20.7653 15.0664 20.5875 15.1331 20.4098 15.2664C20.232 15.3997 20.1431 15.5997 20.1431 15.8664V19.0664C20.1431 19.3331 20.232 19.5331 20.4098 19.6664C20.5875 19.7997 20.7653 19.8664 20.9431 19.8664H24.2764C24.4542 19.8664 24.632 19.7997 24.8098 19.6664C24.9875 19.5331 25.0764 19.3331 25.0764 19.0664V15.8664ZM23.4764 18.3997H21.7431V16.6664H23.4764V18.3997ZM32.4098 15.8664C32.4098 15.5997 32.3209 15.3997 32.1431 15.2664C31.9653 15.1331 31.7875 15.0664 31.6098 15.0664H28.2764C28.0987 15.0664 27.9209 15.1331 27.7431 15.2664C27.5653 15.3997 27.4764 15.5997 27.4764 15.8664V19.0664C27.4764 19.3331 27.5653 19.5331 27.7431 19.6664C27.9209 19.7997 28.0987 19.8664 28.2764 19.8664H31.6098C31.7875 19.8664 31.9653 19.7997 32.1431 19.6664C32.3209 19.5331 32.4098 19.3331 32.4098 19.0664V15.8664ZM30.8098 18.3997H29.0764V16.6664H30.8098V18.3997ZM24.2764 21.8664H20.9431C20.7653 21.8664 20.5875 21.9331 20.4098 22.0664C20.232 22.1997 20.1431 22.3997 20.1431 22.6664V25.9997C20.1431 26.1775 20.232 26.3553 20.4098 26.5331C20.5875 26.7108 20.7653 26.7997 20.9431 26.7997H24.2764C24.4542 26.7997 24.632 26.7108 24.8098 26.5331C24.9875 26.3553 25.0764 26.1775 25.0764 25.9997V22.6664C25.0764 22.3997 24.9875 22.1997 24.8098 22.0664C24.632 21.9331 24.4542 21.8664 24.2764 21.8664ZM23.4764 25.1997H21.7431V23.4664H23.4764V25.1997ZM31.6098 21.8664H28.2764C28.0987 21.8664 27.9209 21.9331 27.7431 22.0664C27.5653 22.1997 27.4764 22.3997 27.4764 22.6664V25.9997C27.4764 26.1775 27.5653 26.3553 27.7431 26.5331C27.9209 26.7108 28.0987 26.7997 28.2764 26.7997H31.6098C31.7875 26.7997 31.9653 26.7108 32.1431 26.5331C32.3209 26.3553 32.4098 26.1775 32.4098 25.9997V22.6664C32.4098 22.3997 32.3209 22.1997 32.1431 22.0664C31.9653 21.9331 31.7875 21.8664 31.6098 21.8664ZM30.8098 25.1997H29.0764V23.4664H30.8098V25.1997ZM6.9431 20.1331C6.76532 20.1331 6.58754 20.222 6.40977 20.3997C6.23199 20.5775 6.1431 20.7553 6.1431 20.9331V30.7997C6.1431 30.9775 6.23199 31.1553 6.40977 31.3331C6.58754 31.5109 6.76532 31.5997 6.9431 31.5997C7.12088 31.5997 7.29866 31.5109 7.47643 31.3331C7.65421 31.1553 7.7431 30.9775 7.7431 30.7997V20.9331C7.7431 20.7553 7.65421 20.5775 7.47643 20.3997C7.29866 20.222 7.12088 20.1331 6.9431 20.1331ZM10.1431 31.5997C10.3209 31.5997 10.4987 31.5109 10.6764 31.3331C10.8542 31.1553 10.9431 30.9775 10.9431 30.7997V20.9331C10.9431 20.7553 10.8542 20.5775 10.6764 20.3997C10.4987 20.222 10.3209 20.1331 10.1431 20.1331C9.96532 20.1331 9.78754 20.222 9.60977 20.3997C9.43199 20.5775 9.3431 20.7553 9.3431 20.9331V30.7997C9.3431 30.9775 9.43199 31.1553 9.60977 31.3331C9.78754 31.5109 9.96532 31.5997 10.1431 31.5997ZM13.3431 31.5997C13.5209 31.5997 13.6987 31.5109 13.8764 31.3331C14.0542 31.1553 14.1431 30.9775 14.1431 30.7997V20.9331C14.1431 20.7553 14.0542 20.5775 13.8764 20.3997C13.6987 20.222 13.5209 20.1331 13.3431 20.1331C13.1653 20.1331 12.9875 20.222 12.8098 20.3997C12.632 20.5775 12.5431 20.7553 12.5431 20.9331V30.7997C12.5431 30.9775 12.632 31.1553 12.8098 31.3331C12.9875 31.5109 13.1653 31.5997 13.3431 31.5997Z" fill="#1A1A1A"/>
</g>
<defs>
<clipPath id="clip0_151_8">
<rect width="40.02" height="40" fill="white" transform="matrix(1 0 0 -1 0 40)"/>
</clipPath>
</defs>
</svg>
