<svg width="41" height="40" viewBox="0 0 41 40" fill="none" xmlns="http://www.w3.org/2000/svg">
<path d="M20.143 27.3329C20.4096 27.3329 20.6096 27.2662 20.743 27.1329C20.8763 26.9995 20.943 26.7995 20.943 26.5329V22.9329C20.943 22.5773 20.8096 22.3329 20.543 22.1995C20.2763 22.0662 20.0096 22.0662 19.743 22.1995C19.4763 22.3329 19.343 22.5773 19.343 22.9329V26.5329C19.343 26.7995 19.4319 26.9995 19.6096 27.1329C19.7874 27.2662 19.9652 27.3329 20.143 27.3329ZM20.143 10.9329C20.4096 10.9329 20.6096 10.8662 20.743 10.7329C20.8763 10.5995 20.943 10.444 20.943 10.2662V6.53288C20.943 6.26621 20.8096 6.06621 20.543 5.93288C20.2763 5.79954 20.0096 5.79954 19.743 5.93288C19.4763 6.06621 19.343 6.26621 19.343 6.53288V10.2662C19.343 10.444 19.4319 10.5995 19.6096 10.7329C19.7874 10.8662 19.9652 10.9329 20.143 10.9329ZM20.143 19.1995C20.4096 19.1995 20.6096 19.1107 20.743 18.9329C20.8763 18.7551 20.943 18.5773 20.943 18.3995V14.7995C20.943 14.5329 20.8763 14.3329 20.743 14.1995C20.6096 14.0662 20.4319 13.9995 20.2096 13.9995C19.9874 13.9995 19.7874 14.0662 19.6096 14.1995C19.4319 14.3329 19.343 14.5329 19.343 14.7995V18.3995C19.343 18.5773 19.4319 18.7551 19.6096 18.9329C19.7874 19.1107 19.9652 19.1995 20.143 19.1995ZM25.6096 10.9329C25.7874 10.9329 25.9652 10.8662 26.143 10.7329C26.3207 10.5995 26.4096 10.444 26.4096 10.2662V6.53288C26.4096 6.3551 26.3207 6.17732 26.143 5.99954C25.9652 5.82177 25.7874 5.73288 25.6096 5.73288C25.4319 5.73288 25.2541 5.82177 25.0763 5.99954C24.8985 6.17732 24.8096 6.3551 24.8096 6.53288V10.2662C24.8096 10.444 24.8985 10.5995 25.0763 10.7329C25.2541 10.8662 25.4319 10.9329 25.6096 10.9329ZM25.6096 19.1995C25.7874 19.1995 25.9652 19.1107 26.143 18.9329C26.3207 18.7551 26.4096 18.5773 26.4096 18.3995V14.7995C26.4096 14.5329 26.3207 14.3329 26.143 14.1995C25.9652 14.0662 25.7874 13.9995 25.6096 13.9995C25.4319 13.9995 25.2541 14.0662 25.0763 14.1995C24.8985 14.3329 24.8096 14.5329 24.8096 14.7995V18.3995C24.8096 18.5773 24.8985 18.7551 25.0763 18.9329C25.2541 19.1107 25.4319 19.1995 25.6096 19.1995ZM25.6096 27.3329C25.7874 27.3329 25.9652 27.2662 26.143 27.1329C26.3207 26.9995 26.4096 26.7995 26.4096 26.5329V22.9329C26.4096 22.6662 26.3207 22.4662 26.143 22.3329C25.9652 22.1995 25.7874 22.1329 25.6096 22.1329C25.4319 22.1329 25.2541 22.1995 25.0763 22.3329C24.8985 22.4662 24.8096 22.6662 24.8096 22.9329V26.5329C24.8096 26.7995 24.8985 26.9995 25.0763 27.1329C25.2541 27.2662 25.4319 27.3329 25.6096 27.3329ZM34.6763 30.2662H35.343C35.5207 30.2662 35.6763 30.1995 35.8096 30.0662C35.943 29.9329 36.0096 29.7551 36.0096 29.5329C36.0096 29.3107 35.943 29.1329 35.8096 28.9995C35.6763 28.8662 35.5207 28.7995 35.343 28.7995H34.6763C34.4096 28.7995 34.2096 28.8662 34.0763 28.9995C33.943 29.1329 33.8763 29.3107 33.8763 29.5329C33.8763 29.7551 33.943 29.9329 34.0763 30.0662C34.2096 30.1995 34.4096 30.2662 34.6763 30.2662ZM34.6763 25.8662H35.343C35.5207 25.8662 35.6763 25.7995 35.8096 25.6662C35.943 25.5329 36.0096 25.3551 36.0096 25.1329C36.0096 24.9107 35.943 24.7107 35.8096 24.5329C35.6763 24.3551 35.5207 24.2662 35.343 24.2662H34.6763C34.4096 24.2662 34.2096 24.3551 34.0763 24.5329C33.943 24.7107 33.8763 24.9107 33.8763 25.1329C33.8763 25.3551 33.943 25.5329 34.0763 25.6662C34.2096 25.7995 34.4096 25.8662 34.6763 25.8662ZM34.6763 34.6662H35.343C35.5207 34.6662 35.6763 34.5773 35.8096 34.3995C35.943 34.2218 36.0096 34.044 36.0096 33.8662C36.0096 33.6884 35.943 33.5107 35.8096 33.3329C35.6763 33.1551 35.5207 33.0662 35.343 33.0662H34.6763C34.4096 33.0662 34.2096 33.1551 34.0763 33.3329C33.943 33.5107 33.8763 33.6884 33.8763 33.8662C33.8763 34.044 33.943 34.2218 34.0763 34.3995C34.2096 34.5773 34.4096 34.6662 34.6763 34.6662ZM10.943 21.4662H11.6096C11.7874 21.4662 11.943 21.3995 12.0763 21.2662C12.2096 21.1329 12.2763 20.9551 12.2763 20.7329C12.2763 20.5107 12.2096 20.3329 12.0763 20.1995C11.943 20.0662 11.7874 19.9995 11.6096 19.9995H10.943C10.6763 19.9995 10.4763 20.0662 10.343 20.1995C10.2096 20.3329 10.143 20.5107 10.143 20.7329C10.143 20.9551 10.2096 21.1329 10.343 21.2662C10.4763 21.3995 10.6763 21.4662 10.943 21.4662ZM10.943 17.0662H11.6096C11.7874 17.0662 11.943 16.9995 12.0763 16.8662C12.2096 16.7329 12.2763 16.5551 12.2763 16.3329C12.2763 16.1107 12.2096 15.9329 12.0763 15.7995C11.943 15.6662 11.7874 15.5995 11.6096 15.5995H10.943C10.6763 15.5995 10.4763 15.6662 10.343 15.7995C10.2096 15.9329 10.143 16.1107 10.143 16.3329C10.143 16.5551 10.2096 16.7329 10.343 16.8662C10.4763 16.9995 10.6763 17.0662 10.943 17.0662ZM10.943 25.8662H11.6096C11.7874 25.8662 11.943 25.7995 12.0763 25.6662C12.2096 25.5329 12.2763 25.3551 12.2763 25.1329C12.2763 24.9107 12.2096 24.7107 12.0763 24.5329C11.943 24.3551 11.7874 24.2662 11.6096 24.2662H10.943C10.5874 24.2662 10.343 24.3995 10.2096 24.6662C10.0763 24.9329 10.0763 25.1995 10.2096 25.4662C10.343 25.7329 10.5874 25.8662 10.943 25.8662ZM38.943 17.9995H31.743V1.46621C31.743 1.19954 31.6763 0.999542 31.543 0.866207C31.4096 0.732876 31.2096 0.66621 30.943 0.66621H14.8096C14.6319 0.66621 14.4541 0.755096 14.2763 0.932877C14.0985 1.11065 14.0096 1.28843 14.0096 1.46621V11.0662H7.60964C7.43186 11.0662 7.25408 11.1329 7.0763 11.2662C6.89852 11.3995 6.80964 11.5995 6.80964 11.8662V21.3329C6.80964 21.5995 6.89852 21.7995 7.0763 21.9329C7.25408 22.0662 7.45408 22.1329 7.6763 22.1329C7.89852 22.1329 8.0763 22.0662 8.20964 21.9329C8.34297 21.7995 8.40964 21.5995 8.40964 21.3329V12.5329H14.0096V38.2662H8.40964C8.14297 38.2662 7.94297 38.3551 7.80964 38.5329C7.6763 38.7107 7.60964 38.9107 7.60964 39.1329C7.60964 39.3551 7.6763 39.5329 7.80964 39.6662C7.94297 39.7995 8.14297 39.8662 8.40964 39.8662H36.2763C37.2541 39.8662 38.0763 39.5329 38.743 38.8662C39.4096 38.1995 39.743 37.4218 39.743 36.5329V18.7995C39.743 18.6218 39.6541 18.444 39.4763 18.2662C39.2985 18.0884 39.1208 17.9995 38.943 17.9995ZM20.943 38.2662V32.2662H24.8096V38.2662H20.943ZM30.143 38.2662H26.4096V31.4662C26.4096 31.1995 26.3207 30.9995 26.143 30.8662C25.9652 30.7329 25.7874 30.6662 25.6096 30.6662H20.143C19.9652 30.6662 19.7874 30.7329 19.6096 30.8662C19.4319 30.9995 19.343 31.1995 19.343 31.4662V38.2662H15.6096V2.13288H30.143V38.2662ZM38.143 36.5329C38.143 36.9773 37.9652 37.3995 37.6096 37.7995C37.2541 38.1995 36.8096 38.3995 36.2763 38.3995H31.743V19.5995H38.143V36.5329ZM9.74297 29.1995C9.74297 27.8662 9.0763 26.5773 7.74297 25.3329C7.03186 24.6218 6.2763 24.044 5.4763 23.5995C5.29852 23.5107 5.0763 23.5107 4.80964 23.5995C4.09852 24.044 3.34297 24.6218 2.54297 25.3329C1.20964 26.5773 0.542969 27.8884 0.542969 29.2662C0.542969 30.644 0.898524 31.8662 1.60964 32.9329C2.32075 33.9995 3.25408 34.6218 4.40964 34.7995V39.0662C4.40964 39.3329 4.4763 39.5329 4.60964 39.6662C4.74297 39.7995 4.92075 39.8662 5.14297 39.8662C5.36519 39.8662 5.54297 39.7995 5.6763 39.6662C5.80964 39.5329 5.8763 39.3329 5.8763 39.0662V34.7995C7.03186 34.6218 7.96519 33.9995 8.6763 32.9329C9.38741 31.8662 9.74297 30.6218 9.74297 29.1995ZM2.00964 29.1995C2.00964 28.4884 2.40964 27.6884 3.20964 26.7995C3.74297 26.2662 4.40964 25.7329 5.20964 25.1995C5.92075 25.7329 6.54297 26.2662 7.0763 26.7995C7.8763 27.6884 8.2763 28.4884 8.2763 29.1995C8.2763 30.1773 8.05408 31.044 7.60964 31.7995C7.16519 32.5551 6.58741 33.0218 5.8763 33.1995V31.4662C5.8763 31.1995 5.80964 30.9995 5.6763 30.8662C5.54297 30.7329 5.36519 30.6662 5.14297 30.6662C4.92075 30.6662 4.74297 30.7329 4.60964 30.8662C4.4763 30.9995 4.40964 31.1995 4.40964 31.4662V33.1995C3.69852 33.0218 3.12075 32.5551 2.6763 31.7995C2.23186 31.044 2.00964 30.1773 2.00964 29.1995Z" fill="#1A1A1A"/>
</svg>
