<svg width="36" height="36" viewBox="0 0 36 36" fill="none" xmlns="http://www.w3.org/2000/svg">
<g clip-path="url(#clip0_1_7)">
<path d="M18.33 31.7066H7.47996C6.85774 31.7066 6.35218 31.4927 5.96329 31.0649C5.5744 30.6371 5.37996 30.151 5.37996 29.6066V15.0232L16.3466 5.33991C16.8911 4.87325 17.5522 4.63991 18.33 4.63991C19.1077 4.63991 19.7688 4.87325 20.3133 5.33991L34.1966 17.5899C34.3522 17.7455 34.5466 17.8038 34.78 17.7649C35.0133 17.726 35.2077 17.6288 35.3633 17.4732C35.5188 17.3177 35.5772 17.1232 35.5383 16.8899C35.4994 16.6566 35.4022 16.4621 35.2466 16.3066L32.9133 14.3232V6.03991C32.9133 4.87325 32.4855 3.86213 31.63 3.00658C30.7744 2.15102 29.7633 1.74269 28.5966 1.78158C27.43 1.82047 26.4383 2.24825 25.6216 3.06491C24.805 3.88158 24.3577 4.87325 24.28 6.03991V6.73991L21.3633 4.17324C20.5077 3.39547 19.4966 3.00658 18.33 3.00658C17.1633 3.00658 16.1522 3.39547 15.2966 4.17324L1.41329 16.3066C1.17996 16.4621 1.06329 16.6566 1.06329 16.8899C1.06329 17.1232 1.14107 17.3177 1.29663 17.4732C1.45218 17.6288 1.64663 17.726 1.87996 17.7649C2.11329 17.8038 2.30774 17.7455 2.46329 17.5899L3.74663 16.5399V29.6066C3.74663 30.6177 4.11607 31.4927 4.85496 32.2316C5.59385 32.9705 6.46885 33.3399 7.47996 33.3399H18.33C18.5633 33.3399 18.7577 33.2621 18.9133 33.1066C19.0688 32.951 19.1466 32.7566 19.1466 32.5232C19.1466 32.2899 19.0688 32.0955 18.9133 31.9399C18.7577 31.7844 18.5633 31.7066 18.33 31.7066ZM25.9133 6.03991C25.9911 5.26213 26.2827 4.62047 26.7883 4.11491C27.2938 3.60936 27.9161 3.37602 28.655 3.41491C29.3938 3.4538 30.0161 3.72602 30.5216 4.23158C31.0272 4.73713 31.28 5.33991 31.28 6.03991V12.8066L25.9133 8.13991V6.03991ZM18.33 10.0066C17.2411 10.0066 16.3077 10.3955 15.53 11.1732C14.7522 11.951 14.3633 12.8844 14.3633 13.9732C14.3633 15.0621 14.7522 15.9955 15.53 16.7732C16.3077 17.551 17.2411 17.9399 18.33 17.9399C19.4188 17.9399 20.3522 17.551 21.13 16.7732C21.9077 15.9955 22.2966 15.0621 22.2966 13.9732C22.2966 12.8844 21.9077 11.951 21.13 11.1732C20.3522 10.3955 19.4188 10.0066 18.33 10.0066ZM20.6633 13.9732C20.6633 14.6732 20.43 15.2371 19.9633 15.6649C19.4966 16.0927 18.9522 16.3066 18.33 16.3066C17.7077 16.3066 17.1633 16.0927 16.6966 15.6649C16.23 15.2371 15.9966 14.6927 15.9966 14.0316C15.9966 13.3705 16.23 12.8066 16.6966 12.3399C17.1633 11.8732 17.7077 11.6399 18.33 11.6399C18.9522 11.6399 19.4966 11.8732 19.9633 12.3399C20.43 12.8066 20.6633 13.351 20.6633 13.9732ZM35.3633 32.0566L32.5633 29.1399C33.2633 28.1288 33.6133 27.001 33.6133 25.7566C33.6133 24.201 33.0494 22.8788 31.9216 21.7899C30.7938 20.701 29.4522 20.1566 27.8966 20.1566C26.3411 20.1566 24.9994 20.701 23.8716 21.7899C22.7438 22.8788 22.18 24.2205 22.18 25.8149C22.18 27.4094 22.7438 28.751 23.8716 29.8399C24.9994 30.9288 26.3411 31.4732 27.8966 31.4732C29.2188 31.4732 30.3855 31.0844 31.3966 30.3066L34.08 33.1066C34.2355 33.2621 34.43 33.3594 34.6633 33.3982C34.8966 33.4371 35.1105 33.3788 35.305 33.2232C35.4994 33.0677 35.5966 32.8732 35.5966 32.6399C35.5966 32.4066 35.5188 32.2121 35.3633 32.0566ZM27.8966 29.8399C26.8077 29.8399 25.855 29.451 25.0383 28.6732C24.2216 27.8955 23.8133 26.9427 23.8133 25.8149C23.8133 24.6871 24.2216 23.7344 25.0383 22.9566C25.855 22.1788 26.8272 21.7899 27.955 21.7899C29.0827 21.7899 30.0355 22.1788 30.8133 22.9566C31.5911 23.7344 31.98 24.6871 31.98 25.8149C31.98 26.9427 31.5911 27.8955 30.8133 28.6732C30.0355 29.451 29.0633 29.8399 27.8966 29.8399Z" fill="#1A1A1A"/>
</g>
<defs>
<clipPath id="clip0_1_7">
<rect width="35" height="35" fill="white" transform="matrix(1 0 0 -1 0.829956 35.0898)"/>
</clipPath>
</defs>
</svg>
