<svg width="36" height="36" viewBox="0 0 36 36" fill="none" xmlns="http://www.w3.org/2000/svg">
<g clip-path="url(#clip0_1_17)">
<path d="M18.5734 21.3232C18.34 21.3232 18.1456 21.2454 17.99 21.0898C16.9789 20.1565 16.5122 19.0287 16.59 17.7065C16.59 16.6954 16.8234 15.7621 17.29 14.9065C17.3678 14.6732 17.5039 14.5371 17.6984 14.4982C17.8928 14.4593 18.0872 14.4982 18.2817 14.6148C18.4761 14.7315 18.5928 14.8871 18.6317 15.0815C18.6706 15.276 18.6511 15.451 18.5734 15.6065C18.2622 15.9954 18.0678 16.5398 17.99 17.2398C17.8345 18.3287 18.1845 19.2621 19.04 20.0398C19.2734 20.2732 19.3317 20.5454 19.215 20.8565C19.0984 21.1676 18.8456 21.3232 18.4567 21.3232H18.5734ZM5.62336 24.4732C4.7678 24.3954 4.02891 24.0454 3.40669 23.4232C2.70669 22.7232 2.35669 21.8482 2.35669 20.7982C2.35669 19.7482 2.70669 18.8732 3.40669 18.1732L10.7567 10.7065C11.0678 10.4732 11.34 10.2787 11.5734 10.1232C11.8067 9.96762 12.0206 9.92873 12.215 10.0065C12.4095 10.0843 12.5456 10.201 12.6234 10.3565C12.7011 10.5121 12.7206 10.6871 12.6817 10.8815C12.6428 11.076 12.5261 11.2315 12.3317 11.3482C12.1372 11.4648 11.9622 11.601 11.8067 11.7565L4.45669 19.2232C3.99002 19.6121 3.75669 20.1371 3.75669 20.7982C3.75669 21.4593 3.99002 21.9843 4.45669 22.3732C4.69002 22.6843 5.00113 22.8787 5.39002 22.9565L7.60669 20.7398C7.76225 20.5843 7.95669 20.5065 8.19002 20.5065L9.24002 20.7398L9.82336 20.1565V18.2898C9.82336 18.1343 9.90113 17.9787 10.0567 17.8232C10.2122 17.6676 10.3678 17.5898 10.5234 17.5898L12.5067 17.4732L15.0734 14.9065L15.3067 14.6732C15.3845 14.5176 15.5206 14.4204 15.715 14.3815C15.9095 14.3426 16.1039 14.3815 16.2984 14.4982C16.4928 14.6148 16.6095 14.7704 16.6484 14.9648C16.6872 15.1593 16.6289 15.3343 16.4734 15.4898L16.1234 15.9565L13.3234 18.7565C13.1678 18.9121 13.0122 18.9898 12.8567 18.9898H11.34V20.5065C11.34 20.7398 11.2622 20.8954 11.1067 20.9732L10.0567 22.1398C9.90113 22.2954 9.70669 22.3343 9.47336 22.2565L8.42336 22.1398L6.20669 24.3565C6.05113 24.4343 5.85669 24.4732 5.62336 24.4732ZM18.8067 16.0732C17.4067 16.0732 16.1039 15.7621 14.8984 15.1398C13.6928 14.5176 12.7011 13.6426 11.9234 12.5148C11.1456 11.3871 10.6984 10.1232 10.5817 8.72318C10.465 7.32318 10.6789 6.00096 11.2234 4.75651C11.7678 3.51207 12.5845 2.48151 13.6734 1.66484C14.7622 0.848175 16.0067 0.323177 17.4067 0.0898438C17.64 0.0120659 17.8539 0.0898438 18.0484 0.323177C18.2428 0.556511 18.3011 0.809288 18.2234 1.08151C18.1456 1.35373 17.9511 1.52873 17.64 1.60651C15.9289 1.83984 14.5484 2.65651 13.4984 4.05651C12.4484 5.45651 12.04 7.03151 12.2734 8.78151C12.5067 10.5315 13.2845 11.951 14.6067 13.0398C15.9289 14.1287 17.4456 14.6343 19.1567 14.5565C20.8678 14.4787 22.3261 13.7982 23.5317 12.5148C24.7372 11.2315 25.34 9.73429 25.34 8.02318C25.34 6.93429 25.1067 5.92318 24.64 4.98984C24.1734 4.05651 23.4734 3.27873 22.54 2.65651C22.3845 2.50095 22.3067 2.32595 22.3067 2.13151C22.3067 1.93707 22.365 1.76207 22.4817 1.60651C22.5984 1.45095 22.7539 1.35373 22.9484 1.31484C23.1428 1.27596 23.3178 1.33429 23.4734 1.48985C24.8734 2.50095 25.865 3.82318 26.4484 5.45651C27.0317 7.08984 27.0511 8.74262 26.5067 10.4148C25.9622 12.0871 24.99 13.4482 23.59 14.4982C22.19 15.5482 20.5956 16.0732 18.8067 16.0732ZM20.44 1.60651C20.3622 1.60651 20.265 1.58707 20.1484 1.54818C20.0317 1.50929 19.915 1.41207 19.7984 1.25651C19.6817 1.10096 19.6428 0.906509 19.6817 0.673176C19.7206 0.439842 19.8761 0.264843 20.1484 0.148178C20.4206 0.0315094 20.6734 0.0704002 20.9067 0.264843C21.14 0.45929 21.2178 0.673176 21.14 0.906509C21.0622 1.13984 20.965 1.31484 20.8484 1.43151C20.7317 1.54818 20.5567 1.60651 20.3234 1.60651H20.44ZM19.8567 9.42318C19.0011 9.42318 18.3011 9.15096 17.7567 8.60651C17.2122 8.06207 16.94 7.38151 16.94 6.56484C16.94 5.74818 17.2122 5.04818 17.7567 4.46484C18.3011 3.88151 18.9817 3.58984 19.7984 3.58984C20.615 3.58984 21.315 3.88151 21.8984 4.46484C22.4817 5.04818 22.7734 5.74818 22.7734 6.56484C22.7734 7.38151 22.4817 8.06207 21.8984 8.60651C21.315 9.15096 20.6345 9.42318 19.8567 9.42318ZM19.8567 5.10651C19.4678 5.10651 19.1178 5.24262 18.8067 5.51484C18.4956 5.78707 18.34 6.11762 18.34 6.50651C18.34 6.8954 18.4956 7.2454 18.8067 7.55651C19.1178 7.86762 19.4678 8.02318 19.8567 8.02318C20.2456 8.02318 20.5761 7.86762 20.8484 7.55651C21.1206 7.2454 21.2567 6.8954 21.2567 6.50651C21.2567 6.11762 21.1206 5.78707 20.8484 5.51484C20.5761 5.24262 20.2456 5.10651 19.8567 5.10651ZM29.3067 35.0898C29.1511 35.0898 28.9956 35.0121 28.84 34.8565C28.6845 34.701 28.6067 34.5454 28.6067 34.3898V26.1065V25.7565C28.5289 25.5232 28.5678 25.3093 28.7234 25.1148C28.8789 24.9204 29.0734 24.8621 29.3067 24.9398H30.1234L22.3067 18.5232L14.3734 24.8232H15.19C15.5011 24.8232 15.715 24.9204 15.8317 25.1148C15.9484 25.3093 16.0067 25.5232 16.0067 25.7565L15.89 26.1065V34.3898C15.89 34.5454 15.8317 34.701 15.715 34.8565C15.5984 35.0121 15.4234 35.0898 15.19 35.0898C14.9567 35.0898 14.7817 35.0121 14.665 34.8565C14.5484 34.701 14.49 34.5454 14.49 34.3898V26.3398H12.2734C11.9622 26.3398 11.7484 26.1843 11.6317 25.8732C11.515 25.5621 11.5734 25.2898 11.8067 25.0565L21.84 17.0065C21.9178 16.9287 22.0539 16.8898 22.2484 16.8898C22.4428 16.8898 22.6178 16.9287 22.7734 17.0065L32.69 25.0565C32.9234 25.2898 32.9817 25.5621 32.865 25.8732C32.7484 26.1843 32.5345 26.3398 32.2234 26.3398H30.1234V34.3898C30.1234 34.5454 30.0456 34.701 29.89 34.8565C29.7345 35.0121 29.54 35.0898 29.3067 35.0898ZM22.3067 23.5398C22.1511 23.5398 21.9956 23.4621 21.84 23.3065C21.6845 23.151 21.6067 22.976 21.6067 22.7815C21.6067 22.5871 21.6845 22.4121 21.84 22.2565C24.4845 19.9232 25.69 17.551 25.4567 15.1398C25.2234 13.1954 24.1734 11.2898 22.3067 9.42318C21.3734 8.48984 20.44 7.75096 19.5067 7.20651C19.1956 7.05095 19.04 6.81762 19.04 6.50651C19.04 6.1954 19.1761 5.98151 19.4484 5.86484C19.7206 5.74818 19.9734 5.76762 20.2067 5.92318C21.2956 6.5454 22.3456 7.40096 23.3567 8.48984C25.4567 10.5898 26.6234 12.7287 26.8567 14.9065C27.1678 17.8621 25.8067 20.701 22.7734 23.4232C22.6956 23.501 22.54 23.5398 22.3067 23.5398ZM24.1734 34.8565C24.0178 34.8565 23.8622 34.7982 23.7067 34.6815C23.5511 34.5648 23.4734 34.3898 23.4734 34.1565V29.7232C23.4734 29.4121 23.3761 29.1593 23.1817 28.9648C22.9872 28.7704 22.7345 28.6732 22.4234 28.6732H21.6067C21.2956 28.6732 21.0428 28.7704 20.8484 28.9648C20.6539 29.1593 20.5567 29.4121 20.5567 29.7232V34.1565C20.5567 34.3898 20.4789 34.5648 20.3234 34.6815C20.1678 34.7982 19.9928 34.8565 19.7984 34.8565C19.6039 34.8565 19.4289 34.7982 19.2734 34.6815C19.1178 34.5648 19.04 34.3898 19.04 34.1565V29.7232C19.04 29.0232 19.2928 28.4204 19.7984 27.9148C20.3039 27.4093 20.9067 27.1565 21.6067 27.1565H22.4234C23.1234 27.1565 23.7261 27.4093 24.2317 27.9148C24.7372 28.4204 24.9511 29.0232 24.8734 29.7232V34.1565C24.9511 34.3898 24.9122 34.5648 24.7567 34.6815C24.6011 34.7982 24.4067 34.8565 24.1734 34.8565Z" fill="#1A1A1A"/>
</g>
<defs>
<clipPath id="clip0_1_17">
<rect width="35" height="35" fill="white" transform="matrix(1 0 0 -1 0.140015 35.0898)"/>
</clipPath>
</defs>
</svg>
