<svg width="36" height="36" viewBox="0 0 36 36" fill="none" xmlns="http://www.w3.org/2000/svg">
<g clip-path="url(#clip0_1_12)">
<path d="M13.78 22.0233C13.78 22.2566 13.8578 22.4316 14.0133 22.5483C14.1689 22.6649 14.3244 22.7233 14.48 22.7233C14.6355 22.7233 14.7911 22.6649 14.9466 22.5483C15.1022 22.4316 15.18 22.276 15.18 22.0816C15.18 21.8871 15.1022 21.7316 14.9466 21.6149C14.7911 21.4983 14.6355 21.4399 14.48 21.4399C14.3244 21.4399 14.1689 21.4983 14.0133 21.6149C13.8578 21.7316 13.78 21.8677 13.78 22.0233ZM17.28 22.0233C17.28 22.2566 17.3578 22.4316 17.5133 22.5483C17.6689 22.6649 17.8244 22.7233 17.98 22.7233C18.1355 22.7233 18.2911 22.6649 18.4466 22.5483C18.6022 22.4316 18.68 22.276 18.68 22.0816C18.68 21.8871 18.6022 21.7316 18.4466 21.6149C18.2911 21.4983 18.1355 21.4399 17.98 21.4399C17.8244 21.4399 17.6689 21.4983 17.5133 21.6149C17.3578 21.7316 17.28 21.8677 17.28 22.0233ZM20.78 22.0233C20.78 22.2566 20.8578 22.4316 21.0133 22.5483C21.1689 22.6649 21.3244 22.7233 21.48 22.7233C21.6355 22.7233 21.7911 22.6649 21.9466 22.5483C22.1022 22.4316 22.18 22.276 22.18 22.0816C22.18 21.8871 22.1022 21.7316 21.9466 21.6149C21.7911 21.4983 21.6355 21.4399 21.48 21.4399C21.3244 21.4399 21.1689 21.4983 21.0133 21.6149C20.8578 21.7316 20.78 21.8677 20.78 22.0233ZM7.01331 22.7233C6.07998 22.7233 5.22442 22.4705 4.44665 21.9649C3.66887 21.4594 3.10498 20.7788 2.75498 19.9233C2.40498 19.0677 2.3272 18.1733 2.52165 17.2399C2.71609 16.3066 3.14387 15.5094 3.80498 14.8483C4.46609 14.1871 5.24387 13.7788 6.13831 13.6233C7.03276 13.4677 7.90776 13.5649 8.76331 13.9149C9.61887 14.2649 10.3189 14.8288 10.8633 15.6066C11.4078 16.3844 11.68 17.2399 11.68 18.1733C11.68 19.4177 11.2328 20.4871 10.3383 21.3816C9.44387 22.276 8.33554 22.7233 7.01331 22.7233ZM7.01331 14.9066C6.39109 14.9066 5.80776 15.0816 5.26331 15.4316C4.71887 15.7816 4.31054 16.2677 4.03831 16.8899C3.76609 17.5121 3.70776 18.1538 3.86331 18.8149C4.01887 19.476 4.32998 20.0205 4.79665 20.4483C5.26331 20.876 5.80776 21.1677 6.42998 21.3233C7.0522 21.4788 7.67443 21.4205 8.29665 21.1483C8.91887 20.876 9.40498 20.4677 9.75498 19.9233C10.105 19.3788 10.28 18.7955 10.28 18.1733C10.28 17.2399 9.96887 16.4621 9.34665 15.8399C8.72443 15.2177 7.94665 14.9066 7.01331 14.9066ZM12.9633 31.0066H1.17998C0.946647 31.0066 0.771647 30.9483 0.65498 30.8316C0.538314 30.7149 0.47998 30.5399 0.47998 30.3066V27.9733C0.47998 26.1844 1.12165 24.6483 2.40498 23.3649C3.68831 22.0816 5.24387 21.4399 7.07165 21.4399C8.89942 21.4399 10.4355 22.0816 11.68 23.3649C12.9244 24.6483 13.5855 26.1844 13.6633 27.9733V30.3066C13.6633 30.5399 13.5855 30.7149 13.43 30.8316C13.2744 30.9483 13.1189 31.0066 12.9633 31.0066ZM1.87998 29.6066H12.2633V27.9733C12.2633 26.5733 11.7578 25.3677 10.7466 24.3566C9.73554 23.3455 8.51054 22.8399 7.07165 22.8399C5.63276 22.8399 4.40776 23.3455 3.39665 24.3566C2.38554 25.3677 1.87998 26.5733 1.87998 27.9733V29.6066ZM28.9466 22.7233C28.0133 22.7233 27.1578 22.4705 26.38 21.9649C25.6022 21.4594 25.0383 20.7788 24.6883 19.9233C24.3383 19.0677 24.2411 18.1733 24.3966 17.2399C24.5522 16.3066 24.9605 15.5094 25.6216 14.8483C26.2828 14.1871 27.08 13.7788 28.0133 13.6233C28.9466 13.4677 29.8411 13.5649 30.6966 13.9149C31.5522 14.2649 32.2328 14.8288 32.7383 15.6066C33.2439 16.3844 33.4966 17.2399 33.4966 18.1733C33.4966 19.4177 33.0494 20.4871 32.155 21.3816C31.2605 22.276 30.1911 22.7233 28.9466 22.7233ZM28.9466 14.9066C28.2466 14.9066 27.6244 15.0816 27.08 15.4316C26.5355 15.7816 26.1466 16.2677 25.9133 16.8899C25.68 17.5121 25.6216 18.1538 25.7383 18.8149C25.855 19.476 26.1466 20.0205 26.6133 20.4483C27.08 20.876 27.6439 21.1677 28.305 21.3233C28.9661 21.4788 29.5883 21.4205 30.1716 21.1483C30.755 20.876 31.2216 20.4677 31.5716 19.9233C31.9216 19.3788 32.0966 18.7955 32.0966 18.1733C32.0966 17.2399 31.7855 16.4621 31.1633 15.8399C30.5411 15.2177 29.8022 14.9066 28.9466 14.9066ZM34.78 31.0066H22.9966C22.8411 31.0066 22.6855 30.9483 22.53 30.8316C22.3744 30.7149 22.2966 30.5399 22.2966 30.3066V27.9733C22.3744 26.1844 23.0355 24.6483 24.28 23.3649C25.5244 22.0816 27.0605 21.4399 28.8883 21.4399C30.7161 21.4399 32.2716 22.0816 33.555 23.3649C34.8383 24.6483 35.48 26.1844 35.48 27.9733V30.3066C35.48 30.5399 35.4216 30.7149 35.305 30.8316C35.1883 30.9483 35.0133 31.0066 34.78 31.0066ZM23.6966 29.6066H34.08V27.9733C34.08 26.5733 33.5744 25.3677 32.5633 24.3566C31.5522 23.3455 30.3272 22.8399 28.8883 22.8399C27.4494 22.8399 26.2244 23.3455 25.2133 24.3566C24.2022 25.3677 23.6966 26.5733 23.6966 27.9733V29.6066ZM14.83 17.9399C14.6744 17.9399 14.5189 17.8816 14.3633 17.7649C14.2078 17.6483 14.13 17.5121 14.13 17.3566V15.2566H13.5466C12.9244 15.2566 12.38 15.0427 11.9133 14.6149C11.4466 14.1871 11.2133 13.6621 11.2133 13.0399V6.38993C11.2133 5.7677 11.4466 5.2427 11.9133 4.81492C12.38 4.38715 12.9244 4.17326 13.5466 4.17326H22.2966C22.9189 4.17326 23.4439 4.38715 23.8716 4.81492C24.2994 5.2427 24.5133 5.7677 24.5133 6.38993V13.0399C24.5133 13.6621 24.2994 14.1871 23.8716 14.6149C23.4439 15.0427 22.9189 15.2566 22.2966 15.2566H17.8633L15.2966 17.8233C15.2189 17.9788 15.0633 18.0177 14.83 17.9399ZM13.5466 5.57326C13.3133 5.57326 13.0994 5.65104 12.905 5.80659C12.7105 5.96215 12.6133 6.15659 12.6133 6.38993V13.0399C12.6133 13.2733 12.7105 13.4871 12.905 13.6816C13.0994 13.876 13.3133 13.9733 13.5466 13.9733H14.83C15.0633 13.9733 15.2383 14.0316 15.355 14.1483C15.4716 14.2649 15.53 14.401 15.53 14.5566V15.6066L17.0466 14.0899C17.2022 14.0121 17.3578 13.9733 17.5133 13.9733H22.2966C22.53 13.9733 22.7439 13.876 22.9383 13.6816C23.1328 13.4871 23.23 13.2733 23.23 13.0399V6.38993C23.23 6.15659 23.1328 5.96215 22.9383 5.80659C22.7439 5.65104 22.53 5.57326 22.2966 5.57326H13.5466Z" fill="#1A1A1A"/>
</g>
<defs>
<clipPath id="clip0_1_12">
<rect width="35" height="35" fill="white" transform="matrix(1 0 0 -1 0.47998 35.0898)"/>
</clipPath>
</defs>
</svg>
