<svg width="20" height="21" viewBox="0 0 20 21" fill="none" xmlns="http://www.w3.org/2000/svg">
<g clip-path="url(#clip0_1_74)">
<path d="M16.1333 3.28333C15.2889 2.48333 14.3444 1.86111 13.3 1.41667C12.2555 0.972221 11.1555 0.749998 9.99998 0.749998C8.84442 0.749998 7.73331 0.972221 6.66665 1.41667C5.59998 1.86111 4.66665 2.48333 3.86665 3.28333C3.06665 4.08333 2.44442 5.01667 1.99998 6.08333C1.55554 7.15 1.33331 8.26111 1.33331 9.41667C1.33331 10.5722 1.55554 11.6722 1.99998 12.7167C2.44442 13.7611 3.06665 14.7056 3.86665 15.55L8.46665 20.15C8.86665 20.55 9.36665 20.75 9.96665 20.75C10.5666 20.75 11.0889 20.55 11.5333 20.15L16.1333 15.55C16.9333 14.7056 17.5555 13.7611 18 12.7167C18.4444 11.6722 18.6666 10.5722 18.6666 9.41667C18.6666 8.26111 18.4444 7.15 18 6.08333C17.5555 5.01667 16.9333 4.08333 16.1333 3.28333ZM15.2666 14.6833L10.6666 19.2833C10.4889 19.4611 10.2666 19.55 9.99998 19.55C9.73331 19.55 9.48887 19.4611 9.26665 19.2833L4.66665 14.6833C3.95554 13.9722 3.4222 13.1611 3.06665 12.25C2.71109 11.3389 2.53331 10.3833 2.53331 9.38333C2.53331 8.38333 2.71109 7.42778 3.06665 6.51667C3.4222 5.60555 3.95554 4.80555 4.66665 4.11666C5.37776 3.42778 6.18887 2.89444 7.09998 2.51667C8.01109 2.13889 8.96665 1.95 9.96665 1.95C10.9666 1.95 11.9222 2.13889 12.8333 2.51667C13.7444 2.89444 14.5555 3.41667 15.2666 4.08333C16.2444 5.06111 16.9 6.19444 17.2333 7.48333C17.5666 8.77222 17.5666 10.0611 17.2333 11.35C16.9 12.6389 16.2444 13.75 15.2666 14.6833ZM9.99998 6.28333C9.15554 6.28333 8.4222 6.59444 7.79998 7.21667C7.17776 7.83889 6.86665 8.57222 6.86665 9.41667C6.86665 10.2611 7.17776 10.9833 7.79998 11.5833C8.4222 12.1833 9.15554 12.4833 9.99998 12.4833C10.8444 12.4833 11.5666 12.1833 12.1666 11.5833C12.7666 10.9833 13.0666 10.2611 13.0666 9.41667C13.0666 8.57222 12.7666 7.83889 12.1666 7.21667C11.5666 6.59444 10.8444 6.28333 9.99998 6.28333ZM9.99998 11.35C9.46665 11.35 9.01109 11.1611 8.63331 10.7833C8.25554 10.4056 8.06665 9.95 8.06665 9.41667C8.06665 8.88333 8.25554 8.42778 8.63331 8.05C9.01109 7.67222 9.46665 7.48333 9.99998 7.48333C10.5333 7.48333 10.9889 7.67222 11.3666 8.05C11.7444 8.42778 11.9333 8.88333 11.9333 9.41667C11.9333 9.95 11.7444 10.4056 11.3666 10.7833C10.9889 11.1611 10.5333 11.35 9.99998 11.35Z" fill="#1A1A1A"/>
</g>
<defs>
<clipPath id="clip0_1_74">
<rect width="20" height="20" fill="white" transform="matrix(1 0 0 -1 0 20.75)"/>
</clipPath>
</defs>
</svg>
