<svg width="21" height="21" viewBox="0 0 21 21" fill="none" xmlns="http://www.w3.org/2000/svg">
<g clip-path="url(#clip0_2_558)">
<path d="M20.78 19.1965L15.8466 14.3298C16.4689 13.5742 16.9578 12.7409 17.3133 11.8298C17.6689 10.9187 17.8466 9.95201 17.8466 8.92978C17.8466 7.41867 17.4689 6.01867 16.7133 4.72978C15.9578 3.4409 14.9355 2.41867 13.6466 1.66312C12.3578 0.907562 10.9466 0.529783 9.41331 0.529783C7.87998 0.529783 6.46887 0.907562 5.17998 1.66312C3.89109 2.41867 2.86887 3.4409 2.11331 4.72978C1.35776 6.01867 0.97998 7.42978 0.97998 8.96312C0.97998 10.4965 1.35776 11.9076 2.11331 13.1965C2.86887 14.4853 3.89109 15.5076 5.17998 16.2631C6.46887 17.0187 7.86887 17.3965 9.37998 17.3965C10.4022 17.3965 11.3689 17.2187 12.28 16.8631C13.1911 16.5076 14.0244 16.0187 14.78 15.3965L19.6466 20.3298C19.8244 20.4631 20.0133 20.5298 20.2133 20.5298C20.4133 20.5298 20.5911 20.452 20.7466 20.2965C20.9022 20.1409 20.98 19.9631 20.98 19.7631C20.98 19.5631 20.9133 19.3742 20.78 19.1965ZM2.51331 8.92978C2.51331 7.68534 2.82442 6.5409 3.44665 5.49645C4.06887 4.45201 4.9022 3.61867 5.94665 2.99645C6.99109 2.37423 8.13554 2.06312 9.37998 2.06312C10.6244 2.06312 11.7689 2.37423 12.8133 2.99645C13.8578 3.61867 14.6911 4.45201 15.3133 5.49645C15.9355 6.5409 16.2466 7.68534 16.2466 8.92978C16.2466 10.1742 15.9355 11.3187 15.3133 12.3631C14.6911 13.4076 13.8578 14.2409 12.8133 14.8631C11.7689 15.4853 10.6244 15.7965 9.37998 15.7965C8.13554 15.7965 6.99109 15.4853 5.94665 14.8631C4.9022 14.2409 4.06887 13.4076 3.44665 12.3631C2.82442 11.3187 2.51331 10.1742 2.51331 8.92978Z" fill="#1A1A1A"/>
</g>
<defs>
<clipPath id="clip0_2_558">
<rect width="20" height="20" fill="white" transform="matrix(1 0 0 -1 0.97998 20.5298)"/>
</clipPath>
</defs>
</svg>
