<svg width="21" height="21" viewBox="0 0 21 21" fill="none" xmlns="http://www.w3.org/2000/svg">
<g clip-path="url(#clip0_1_86)">
<path d="M16.7767 18.9301H14.3767C14.2434 18.9301 14.11 18.9968 13.9767 19.1301C13.8434 19.2635 13.7767 19.4079 13.7767 19.5635C13.7767 19.719 13.8434 19.8523 13.9767 19.9635C14.11 20.0746 14.2434 20.1301 14.3767 20.1301H16.7767C16.9545 20.1301 17.0989 20.0746 17.21 19.9635C17.3211 19.8523 17.3767 19.719 17.3767 19.5635C17.3767 19.4079 17.3211 19.2635 17.21 19.1301C17.0989 18.9968 16.9545 18.9301 16.7767 18.9301ZM12.0434 18.9301H9.71003C9.53226 18.9301 9.38781 18.9968 9.2767 19.1301C9.16559 19.2635 9.11003 19.4079 9.11003 19.5635C9.11003 19.719 9.16559 19.8523 9.2767 19.9635C9.38781 20.0746 9.53226 20.1301 9.71003 20.1301H12.0434C12.2211 20.1301 12.3656 20.0746 12.4767 19.9635C12.5878 19.8523 12.6434 19.719 12.6434 19.5635C12.6434 19.4079 12.5878 19.2635 12.4767 19.1301C12.3656 18.9968 12.2211 18.9301 12.0434 18.9301ZM20.31 8.33013C20.1767 8.33013 20.0434 8.38568 19.91 8.49679C19.7767 8.6079 19.71 8.75235 19.71 8.93013V11.2635C19.71 11.4412 19.7767 11.5857 19.91 11.6968C20.0434 11.8079 20.1878 11.8635 20.3434 11.8635C20.4989 11.8635 20.6323 11.8079 20.7434 11.6968C20.8545 11.5857 20.91 11.4412 20.91 11.2635V8.93013C20.91 8.75235 20.8545 8.6079 20.7434 8.49679C20.6323 8.38568 20.4878 8.33013 20.31 8.33013ZM20.31 12.9968C20.1767 12.9968 20.0434 13.0635 19.91 13.1968C19.7767 13.3301 19.71 13.4635 19.71 13.5968V15.9301C19.71 16.1079 19.7767 16.2523 19.91 16.3635C20.0434 16.4746 20.1878 16.5301 20.3434 16.5301C20.4989 16.5301 20.6323 16.4746 20.7434 16.3635C20.8545 16.2523 20.91 16.1079 20.91 15.9301V13.5968C20.91 13.4635 20.8545 13.3301 20.7434 13.1968C20.6323 13.0635 20.4878 12.9968 20.31 12.9968ZM7.3767 18.9301H6.7767V18.3968C6.7767 18.219 6.72115 18.0746 6.61003 17.9635C6.49892 17.8523 6.35448 17.7968 6.1767 17.7968C5.99892 17.7968 5.85448 17.8523 5.74337 17.9635C5.63226 18.0746 5.5767 18.219 5.5767 18.3968V19.5301C5.5767 19.7079 5.63226 19.8523 5.74337 19.9635C5.85448 20.0746 5.99892 20.1301 6.1767 20.1301H7.3767C7.51003 20.1301 7.63226 20.0746 7.74337 19.9635C7.85448 19.8523 7.91003 19.719 7.91003 19.5635C7.91003 19.4079 7.85448 19.2635 7.74337 19.1301C7.63226 18.9968 7.51003 18.9301 7.3767 18.9301ZM20.31 4.79679H19.1767C18.9989 4.79679 18.8545 4.85235 18.7434 4.96346C18.6323 5.07457 18.5767 5.21902 18.5767 5.39679C18.5767 5.57457 18.6323 5.71902 18.7434 5.83013C18.8545 5.94124 18.9989 5.99679 19.1767 5.99679H19.71V6.59679C19.71 6.73013 19.7767 6.85235 19.91 6.96346C20.0434 7.07457 20.1878 7.13013 20.3434 7.13013C20.4989 7.13013 20.6323 7.07457 20.7434 6.96346C20.8545 6.85235 20.91 6.73013 20.91 6.59679V5.39679C20.91 5.21902 20.8545 5.07457 20.7434 4.96346C20.6323 4.85235 20.4878 4.79679 20.31 4.79679ZM20.31 17.7968C20.1767 17.7968 20.0434 17.8523 19.91 17.9635C19.7767 18.0746 19.71 18.219 19.71 18.3968V18.9301H19.1767C18.9989 18.9301 18.8545 18.9968 18.7434 19.1301C18.6323 19.2635 18.5767 19.4079 18.5767 19.5635C18.5767 19.719 18.6323 19.8523 18.7434 19.9635C18.8545 20.0746 18.9989 20.1301 19.1767 20.1301H20.31C20.4878 20.1301 20.6323 20.0746 20.7434 19.9635C20.8545 19.8523 20.91 19.7079 20.91 19.5301V18.3968C20.91 18.219 20.8545 18.0746 20.7434 17.9635C20.6323 17.8523 20.4878 17.7968 20.31 17.7968ZM16.7767 4.79679H16.1767V0.730125C16.1767 0.552349 16.11 0.407904 15.9767 0.296793C15.8434 0.185682 15.71 0.130125 15.5767 0.130125H1.51003C1.33226 0.130125 1.18781 0.185682 1.0767 0.296793C0.96559 0.407904 0.910034 0.552349 0.910034 0.730125V14.7968C0.910034 14.9301 0.96559 15.0635 1.0767 15.1968C1.18781 15.3301 1.33226 15.3968 1.51003 15.3968H5.5767V15.9301C5.5767 16.1079 5.63226 16.2523 5.74337 16.3635C5.85448 16.4746 5.99892 16.5301 6.1767 16.5301C6.35448 16.5301 6.49892 16.4746 6.61003 16.3635C6.72115 16.2523 6.7767 16.1079 6.7767 15.9301V5.99679H16.7767C16.9545 5.99679 17.0989 5.94124 17.21 5.83013C17.3211 5.71902 17.3767 5.57457 17.3767 5.39679C17.3767 5.21902 17.3211 5.07457 17.21 4.96346C17.0989 4.85235 16.9545 4.79679 16.7767 4.79679ZM14.9767 4.79679H6.1767C5.99892 4.79679 5.85448 4.85235 5.74337 4.96346C5.63226 5.07457 5.5767 5.21902 5.5767 5.39679V14.1968H2.11003V1.33013H14.9767V4.79679Z" fill="#1A1A1A"/>
</g>
<defs>
<clipPath id="clip0_1_86">
<rect width="20" height="20" fill="white" transform="matrix(1 0 0 -1 0.910034 20.1301)"/>
</clipPath>
</defs>
</svg>
