<svg width="19" height="19" viewBox="0 0 19 19" fill="none" xmlns="http://www.w3.org/2000/svg">
<path d="M9.72001 9.71999C8.48801 9.71999 7.43334 9.28133 6.55601 8.40399C5.67868 7.52666 5.24001 6.47199 5.24001 5.23999C5.24001 4.00799 5.67868 2.95333 6.55601 2.07599C7.43334 1.19866 8.48801 0.759995 9.72001 0.759995C10.952 0.759995 12.0067 1.19866 12.884 2.07599C13.7613 2.95333 14.2 4.00799 14.2 5.23999C14.2 6.47199 13.7613 7.52666 12.884 8.40399C12.0067 9.28133 10.952 9.71999 9.72001 9.71999ZM0.76001 18.68V15.544C0.76001 14.9093 0.92353 14.3262 1.25057 13.7946C1.57761 13.2629 2.01142 12.8567 2.55201 12.576C3.70934 11.9973 4.88534 11.5635 6.08001 11.2746C7.27468 10.9856 8.48801 10.8407 9.72001 10.84C10.952 10.8392 12.1653 10.9841 13.36 11.2746C14.5547 11.565 15.7307 11.9988 16.888 12.576C17.4293 12.856 17.8635 13.2622 18.1906 13.7946C18.5176 14.3269 18.6808 14.9101 18.68 15.544V18.68H0.76001Z" fill="white"/>
</svg>
