<svg width="45" height="45" viewBox="0 0 45 45" fill="none" xmlns="http://www.w3.org/2000/svg">
<circle cx="22.5" cy="22.5" r="22.5" transform="matrix(-1 0 0 1 45 0)" fill="white"/>
<path d="M24.9362 28C25.2199 28 25.4681 27.9469 25.6809 27.8407C25.8936 27.7345 26 27.5938 26 27.4186V18.5814C26 18.407 25.8936 18.2667 25.6809 18.1605C25.4681 18.0543 25.2199 18.0008 24.9362 18C24.8652 18 24.617 18.0581 24.1915 18.1744L16.4787 22.3895C16.3014 22.4864 16.1773 22.5833 16.1064 22.6802C16.0355 22.7771 16 22.8837 16 23C16 23.1163 16.0355 23.2229 16.1064 23.3198C16.1773 23.4167 16.3014 23.5135 16.4787 23.6104L24.1915 27.8256C24.2979 27.8837 24.4128 27.9275 24.5362 27.9569C24.6596 27.9864 24.7929 28.0007 24.9362 28Z" fill="black"/>
</svg>
