<svg width="19" height="23" viewBox="0 0 19 23" fill="none" xmlns="http://www.w3.org/2000/svg">
<path d="M16.44 4.56H14.2C14.2 2.0848 12.1952 0.0800018 9.72001 0.0800018C7.24481 0.0800018 5.24001 2.0848 5.24001 4.56H3.00001C1.76801 4.56 0.76001 5.568 0.76001 6.8V20.24C0.76001 21.472 1.76801 22.48 3.00001 22.48H16.44C17.672 22.48 18.68 21.472 18.68 20.24V6.8C18.68 5.568 17.672 4.56 16.44 4.56ZM9.72001 2.32C10.952 2.32 11.96 3.328 11.96 4.56H7.48001C7.48001 3.328 8.48801 2.32 9.72001 2.32ZM16.44 20.24H3.00001V6.8H5.24001V9.04C5.24001 9.656 5.74401 10.16 6.36001 10.16C6.97601 10.16 7.48001 9.656 7.48001 9.04V6.8H11.96V9.04C11.96 9.656 12.464 10.16 13.08 10.16C13.696 10.16 14.2 9.656 14.2 9.04V6.8H16.44V20.24Z" fill="white"/>
</svg>
