<svg width="30" height="30" viewBox="0 0 30 30" fill="none" xmlns="http://www.w3.org/2000/svg">
<path d="M27.9937 30C28.5675 30 29.0456 29.8125 29.4281 29.4375C29.8106 29.0625 30.0012 28.5938 30 28.0313V23.4675C30 22.965 29.8412 22.5194 29.5237 22.1306C29.2062 21.7419 28.7925 21.4856 28.2825 21.3619L24.3394 20.5519C23.8769 20.4894 23.4556 20.5106 23.0756 20.6156C22.6956 20.7206 22.3519 20.9375 22.0444 21.2663L18.0356 25.3481C16.5356 24.5169 15.1581 23.6331 13.9031 22.6969C12.6481 21.7594 11.4762 20.7469 10.3875 19.6594C9.3325 18.5869 8.33938 17.4513 7.40812 16.2525C6.47688 15.0538 5.62687 13.7563 4.85813 12.36L8.97 8.52375C9.26875 8.27375 9.47687 7.95312 9.59437 7.56187C9.71187 7.17063 9.7275 6.7125 9.64125 6.1875L8.71125 1.71562C8.57625 1.21312 8.31875 0.801875 7.93875 0.481875C7.56 0.160625 7.11563 0 6.60563 0H1.96875C1.40625 0 0.9375 0.19125 0.5625 0.57375C0.1875 0.95625 0 1.43312 0 2.00437C0 5.16562 0.791254 8.4 2.37375 11.7075C3.95625 15.015 6.1725 18.0994 9.0225 20.9606C11.8725 23.8219 14.9562 26.0437 18.2737 27.6262C21.5912 29.2087 24.8319 30 27.9956 30M3.98813 10.6013C3.36063 9.19 2.86438 7.7875 2.49938 6.39375C2.13438 5 1.93313 3.6625 1.89563 2.38125C1.89563 2.23625 1.94375 2.11563 2.04 2.01938C2.13625 1.92313 2.25688 1.875 2.40188 1.875H6.23812C6.43063 1.875 6.58687 1.92313 6.70687 2.01938C6.82688 2.11563 6.91063 2.25938 6.95813 2.45063L7.80188 6.42562C7.85063 6.56938 7.85687 6.72563 7.82063 6.89437C7.78437 7.06313 7.70625 7.19562 7.58625 7.29187L3.98813 10.6013ZM19.8319 26.2069L23.3569 22.6069C23.4781 22.4881 23.5931 22.4106 23.7019 22.3744C23.8094 22.3369 23.935 22.3431 24.0787 22.3931L27.5475 23.1131C27.74 23.1606 27.8844 23.2444 27.9806 23.3644C28.0769 23.4856 28.125 23.6419 28.125 23.8331V27.5981C28.125 27.7419 28.0769 27.8619 27.9806 27.9581C27.8844 28.0544 27.7644 28.1025 27.6206 28.1025C26.5556 28.0813 25.3081 27.9169 23.8781 27.6094C22.4481 27.3019 21.0994 26.8344 19.8319 26.2069Z" fill="#01AFF6"/>
</svg>
