<svg width="40" height="40" viewBox="0 0 40 40" fill="none" xmlns="http://www.w3.org/2000/svg">
<path d="M37.3788 20C38.8265 20 40.0177 21.1785 39.8285 22.6137C39.4292 25.6426 38.3396 28.5519 36.6294 31.1114C34.4318 34.4004 31.3082 36.9638 27.6537 38.4776C23.9991 39.9913 19.9778 40.3874 16.0982 39.6157C12.2186 38.844 8.65491 36.9392 5.85786 34.1421C3.06081 31.3451 1.156 27.7814 0.384294 23.9018C-0.38741 20.0222 0.00865672 16.0009 1.52241 12.3463C3.03616 8.69181 5.59961 5.56824 8.8886 3.37061C11.4481 1.66043 14.3574 0.570766 17.3863 0.17151C18.8215 -0.0176778 20 1.17354 20 2.62118C20 4.06881 18.8174 5.21874 17.3925 5.47453C15.4025 5.83176 13.4976 6.59587 11.8011 7.72947C9.37421 9.35106 7.48269 11.6559 6.36572 14.3525C5.24874 17.0491 4.95649 20.0164 5.52592 22.8791C6.09535 25.7418 7.50088 28.3713 9.56477 30.4352C11.6287 32.4991 14.2582 33.9047 17.1209 34.4741C19.9836 35.0435 22.9509 34.7513 25.6475 33.6343C28.3441 32.5173 30.6489 30.6258 32.2705 28.1989C33.4041 26.5024 34.1682 24.5975 34.5255 22.6075C34.7813 21.1826 35.9312 20 37.3788 20Z" fill="black"/>
<path d="M31.4307 20C32.8497 20 34.0239 18.8401 33.7649 17.4449C33.252 14.6819 31.9146 12.1156 29.8995 10.1005C27.274 7.475 23.713 6 20 6C16.287 6 12.726 7.475 10.1005 10.1005C8.08536 12.1156 6.74798 14.6819 6.23507 17.4449C5.97609 18.8401 7.15033 20 8.56934 20C9.98835 20 11.1028 18.8262 11.5086 17.4664C11.9254 16.0694 12.6845 14.7837 13.7341 13.7341C15.3959 12.0723 17.6498 11.1387 20 11.1387C22.3502 11.1387 24.6041 12.0723 26.2659 13.7341C27.3155 14.7837 28.0746 16.0694 28.4914 17.4664C28.8972 18.8262 30.0117 20 31.4307 20Z" fill="black"/>
<path d="M25 20C26.6569 20 28.0509 21.3885 27.4441 22.9302C27.2358 23.4592 26.9708 23.9671 26.6518 24.4446C25.7727 25.7602 24.5233 26.7855 23.0615 27.391C21.5997 27.9965 19.9911 28.155 18.4393 27.8463C16.8874 27.5376 15.462 26.7757 14.3431 25.6569C13.2243 24.538 12.4624 23.1126 12.1537 21.5607C11.845 20.0089 12.0035 18.4003 12.609 16.9385C13.2145 15.4767 14.2398 14.2273 15.5554 13.3482C16.0329 13.0292 16.5408 12.7642 17.0698 12.5559C18.6115 11.9491 20 13.3431 20 15V17C20 18.6569 21.3431 20 23 20H25Z" fill="black"/>
</svg>
