<svg width="19" height="23" viewBox="0 0 19 23" fill="none" xmlns="http://www.w3.org/2000/svg">
<path d="M1.88001 19.12C1.56268 19.12 1.29687 19.0125 1.08257 18.7974C0.86828 18.5824 0.76076 18.3166 0.760014 18C0.759267 17.6834 0.866787 17.4176 1.08257 17.2026C1.29836 16.9875 1.56417 16.88 1.88001 16.88H3.00001V9.04C3.00001 7.49067 3.46668 6.11419 4.40001 4.91056C5.33335 3.70694 6.54668 2.91808 8.04001 2.544V1.76C8.04001 1.29334 8.20353 0.896858 8.53057 0.570564C8.85761 0.244271 9.25409 0.080751 9.72001 0.0800044C10.1859 0.0792577 10.5828 0.242778 10.9106 0.570564C11.2384 0.898351 11.4015 1.29483 11.4 1.76V2.544C12.8933 2.91734 14.1067 3.70619 15.04 4.91056C15.9733 6.11494 16.44 7.49142 16.44 9.04V16.88H17.56C17.8773 16.88 18.1435 16.9875 18.3586 17.2026C18.5736 17.4176 18.6808 17.6834 18.68 18C18.6793 18.3166 18.5717 18.5828 18.3575 18.7986C18.1432 19.0144 17.8773 19.1215 17.56 19.12H1.88001ZM9.72001 22.48C9.10401 22.48 8.57687 22.2609 8.13857 21.8226C7.70028 21.3843 7.48076 20.8568 7.48001 20.24H11.96C11.96 20.856 11.7409 21.3835 11.3026 21.8226C10.8643 22.2616 10.3368 22.4808 9.72001 22.48Z" fill="white"/>
</svg>
