<svg width="33" height="33" viewBox="0 0 33 33" fill="none" xmlns="http://www.w3.org/2000/svg">
<rect x="0.5" y="0.5" width="32" height="32" fill="#2F1A75" stroke="#01AFF6"/>
<path d="M29 24.8571V26.2857H11.1714V24.8571H29ZM6.37143 24.1429C6.73515 24.1429 7.08398 24.2934 7.34117 24.5613C7.59837 24.8292 7.74286 25.1925 7.74286 25.5714C7.74286 25.9503 7.59837 26.3137 7.34117 26.5816C7.08398 26.8495 6.73515 27 6.37143 27C6.0077 27 5.65887 26.8495 5.40168 26.5816C5.14449 26.3137 5 25.9503 5 25.5714C5 25.1925 5.14449 24.8292 5.40168 24.5613C5.65887 24.2934 6.0077 24.1429 6.37143 24.1429ZM29 16.2857V17.7143H11.1714V16.2857H29ZM6.37143 15.5714C6.73515 15.5714 7.08398 15.7219 7.34117 15.9898C7.59837 16.2578 7.74286 16.6211 7.74286 17C7.74286 17.3789 7.59837 17.7422 7.34117 18.0102C7.08398 18.2781 6.73515 18.4286 6.37143 18.4286C6.0077 18.4286 5.65887 18.2781 5.40168 18.0102C5.14449 17.7422 5 17.3789 5 17C5 16.6211 5.14449 16.2578 5.40168 15.9898C5.65887 15.7219 6.0077 15.5714 6.37143 15.5714ZM29 7.71429V9.14286H11.1714V7.71429H29ZM6.37143 7C6.73515 7 7.08398 7.15051 7.34117 7.41842C7.59837 7.68633 7.74286 8.04969 7.74286 8.42857C7.74286 8.80745 7.59837 9.17081 7.34117 9.43872C7.08398 9.70663 6.73515 9.85714 6.37143 9.85714C6.0077 9.85714 5.65887 9.70663 5.40168 9.43872C5.14449 9.17081 5 8.80745 5 8.42857C5 8.04969 5.14449 7.68633 5.40168 7.41842C5.65887 7.15051 6.0077 7 6.37143 7Z" fill="#01AFF6"/>
</svg>
