<svg width="18" height="18" viewBox="0 0 18 18" fill="none" xmlns="http://www.w3.org/2000/svg">
<path d="M9 10.8667L2.46666 17.4C2.22222 17.6444 1.91111 17.7667 1.53333 17.7667C1.15555 17.7667 0.84444 17.6444 0.599996 17.4C0.355551 17.1556 0.23333 16.8444 0.23333 16.4667C0.23333 16.0889 0.355551 15.7778 0.599996 15.5333L7.13333 9L0.599996 2.46667C0.355551 2.22222 0.23333 1.91111 0.23333 1.53333C0.23333 1.15556 0.355551 0.844444 0.599996 0.6C0.84444 0.355555 1.15555 0.233334 1.53333 0.233334C1.91111 0.233334 2.22222 0.355555 2.46666 0.6L9 7.13333L15.5333 0.6C15.7778 0.355555 16.0889 0.233334 16.4667 0.233334C16.8444 0.233334 17.1556 0.355555 17.4 0.6C17.6444 0.844444 17.7667 1.15556 17.7667 1.53333C17.7667 1.91111 17.6444 2.22222 17.4 2.46667L10.8667 9L17.4 15.5333C17.6444 15.7778 17.7667 16.0889 17.7667 16.4667C17.7667 16.8444 17.6444 17.1556 17.4 17.4C17.1556 17.6444 16.8444 17.7667 16.4667 17.7667C16.0889 17.7667 15.7778 17.6444 15.5333 17.4L9 10.8667Z" fill="url(#paint0_linear_542_3)"/>
<defs>
<linearGradient id="paint0_linear_542_3" x1="-6.13019" y1="3.2661" x2="22" y2="15.5" gradientUnits="userSpaceOnUse">
<stop stop-color="#665DCD"/>
<stop offset="0.576322" stop-color="#5FA4E6"/>
<stop offset="1" stop-color="#D2AB67"/>
</linearGradient>
</defs>
</svg>
