<svg width="58" height="58" viewBox="0 0 58 58" fill="none" xmlns="http://www.w3.org/2000/svg">
<path d="M29 0.491455C13.2552 0.491455 0.491516 13.2551 0.491516 28.9999C0.491516 44.7447 13.2552 57.5084 29 57.5084C44.7448 57.5084 57.5085 44.7447 57.5085 28.9999C57.5085 13.2551 44.7448 0.491455 29 0.491455ZM29 1.47451C44.2019 1.47451 56.5254 13.7981 56.5254 28.9999C56.5254 44.2018 44.2019 56.5254 29 56.5254C13.7981 56.5254 1.47457 44.2018 1.47457 28.9999C1.47457 13.7981 13.7981 1.47451 29 1.47451Z" fill="url(#paint0_linear_1_173)"/>
<path fill-rule="evenodd" clip-rule="evenodd" d="M38.86 28.8513L31.3101 20.9352C30.9581 20.575 30.3867 20.5332 29.9756 20.8988C29.6088 21.2244 29.5996 21.861 29.9388 22.2157L35.9994 28.5603H20.6047C20.0831 28.5603 19.661 28.9768 19.661 29.4916C19.661 30.0064 20.0831 30.4229 20.6047 30.4229H35.9994L29.9388 36.7675C29.5996 37.1222 29.6236 37.7425 29.9756 38.0844C30.348 38.4446 30.9636 38.4136 31.3101 38.048L38.86 30.1319C39.0812 29.9172 39.1217 29.7099 39.1254 29.4916C39.1254 29.277 38.9927 28.9896 38.86 28.8513Z" fill="url(#paint1_linear_1_173)"/>
<defs>
<linearGradient id="paint0_linear_1_173" x1="0.491516" y1="0.491455" x2="57.5085" y2="57.5084" gradientUnits="userSpaceOnUse">
<stop stop-color="#665DCD"/>
<stop offset="0.447624" stop-color="#5FA4E6"/>
<stop offset="1" stop-color="#D2AB67"/>
</linearGradient>
<linearGradient id="paint1_linear_1_173" x1="19.661" y1="22.1796" x2="37.5969" y2="38.4849" gradientUnits="userSpaceOnUse">
<stop stop-color="#665DCD"/>
<stop offset="0.447624" stop-color="#5FA4E6"/>
<stop offset="1" stop-color="#D2AB67"/>
</linearGradient>
</defs>
</svg>
